<?xml version="1.0" encoding="UTF-8"?>
<svg version="1.1" xmlns="http://www.w3.org/2000/svg" width="300" height="300">
<path d="M0 0 C2.3581543 1.16064453 2.3581543 1.16064453 4.82421875 2.6328125 C5.75669434 3.18380615 6.68916992 3.7347998 7.64990234 4.30249023 C9.15351318 5.20463257 9.15351318 5.20463257 10.6875 6.125 C12.86025981 7.41086159 15.03345157 8.69599352 17.20703125 9.98046875 C18.32932129 10.6461084 19.45161133 11.31174805 20.60791016 11.99755859 C26.00694148 15.18475126 31.4405284 18.31124675 36.875 21.4375 C39.05994368 22.69653156 41.24483925 23.95564661 43.4296875 25.21484375 C44.51475586 25.83987793 45.59982422 26.46491211 46.71777344 27.10888672 C53.22729589 30.85946399 59.7339478 34.61501989 66.24072266 38.37036133 C71.70534663 41.52385162 77.17147902 44.6746704 82.640625 47.8203125 C83.74792969 48.45775391 84.85523438 49.09519531 85.99609375 49.75195312 C88.04498654 50.9313578 90.09439311 52.10987081 92.14453125 53.28710938 C94.12173439 54.42577829 96.07910955 55.59949934 98.01626587 56.80503845 C101.04992573 58.59557926 104.11125017 59.81905427 107.41293335 61.03846741 C113.83137021 63.67994801 119.54953528 66.53842878 124 72 C127.73567233 81.89385408 126.6346497 93.21680157 126.23066664 103.60748506 C126.09214697 107.77599919 126.08014188 111.94494202 126.05410767 116.11540222 C125.98599865 123.99474033 125.8059011 131.86727999 125.58441889 139.74363679 C125.33761371 148.71740863 125.21734062 157.69152393 125.10711932 166.66785014 C124.87778906 185.11574062 124.49141875 203.55732212 124 222 C123.28686142 222.39824478 122.57372284 222.79648956 121.838974 223.20680237 C119.15304822 224.70726489 116.46755344 226.20849529 113.78233337 227.71022034 C112.06464459 228.67055196 110.3464755 229.63002433 108.6282959 230.58947754 C102.56972243 233.97850939 96.53334902 237.39600837 90.5625 240.9375 C89.86624008 241.35030716 89.16998016 241.76311432 88.45262146 242.18843079 C87.81856888 242.56452988 87.1845163 242.94062897 86.53125 243.328125 C80.90132079 246.66001947 75.2307813 249.92142872 69.5625 253.1875 C68.45672607 253.82478027 67.35095215 254.46206055 66.21166992 255.11865234 C62.8080747 257.0796138 59.40408111 259.03988215 56 261 C51.6244921 263.51995295 47.24952728 266.04084514 42.875 268.5625 C41.80967041 269.17617432 40.74434082 269.78984863 39.64672852 270.42211914 C34.21396375 273.55512206 28.79093474 276.70353167 23.3828125 279.87890625 C21.7743042 280.82237915 21.7743042 280.82237915 20.13330078 281.78491211 C18.11695917 282.9690454 16.10217981 284.15584504 14.08935547 285.34594727 C12.27316395 286.41244481 10.44721162 287.4625346 8.61083984 288.49389648 C5.97733583 289.96820301 5.97733583 289.96820301 3.50244141 291.71118164 C0.94289784 293.32224816 -1.03565062 294.38021234 -4 295 C-8.38097826 293.8817182 -11.8501396 291.62354085 -15.625 289.1875 C-16.71111572 288.53257568 -17.79723145 287.87765137 -18.91625977 287.20288086 C-21.18204929 285.834823 -23.43829877 284.4508485 -25.68505859 283.05175781 C-29.74431806 280.53930999 -33.86474127 278.14549354 -37.99902344 275.75927734 C-40.97698509 274.03969995 -43.94448556 272.30317777 -46.91015625 270.5625 C-53.21570465 266.86786663 -59.54297534 263.2115276 -65.875 259.5625 C-66.95370361 258.94068848 -68.03240723 258.31887695 -69.14379883 257.67822266 C-72.42892251 255.78500101 -75.71439728 253.89239017 -79 252 C-83.37542829 249.47990911 -87.7505147 246.95922746 -92.125 244.4375 C-93.18509277 243.82640381 -94.24518555 243.21530762 -95.33740234 242.58569336 C-104.11389293 237.52150972 -112.86884081 232.42095447 -121.61376953 227.30249023 C-122.55591309 226.75149658 -123.49805664 226.20050293 -124.46875 225.6328125 C-125.71301758 224.90408936 -125.71301758 224.90408936 -126.98242188 224.16064453 C-128.30046576 223.40241841 -129.6399569 222.68002155 -131 222 C-131.56210665 202.68582813 -131.98453963 183.37332673 -132.24349213 164.05265617 C-132.36696342 155.08000283 -132.53504797 146.11244578 -132.81054688 137.14306641 C-133.05073874 129.31940343 -133.20480495 121.49942946 -133.25812387 113.6721822 C-133.28928147 109.53000712 -133.36166956 105.39837685 -133.53752136 101.25960922 C-134.56388886 76.15055187 -134.56388886 76.15055187 -128.64449692 69.25675011 C-122.91452131 64.63646905 -116.63495443 61.69649996 -109.78815842 59.09526253 C-106.21454654 57.69145306 -103.13992694 55.9013379 -99.8828125 53.87890625 C-97.96389348 52.77282692 -96.04463128 51.66734273 -94.125 50.5625 C-91.94009462 49.30340198 -89.75519908 48.04428689 -87.5703125 46.78515625 C-86.48524414 46.16012207 -85.40017578 45.53508789 -84.28222656 44.89111328 C-78.85340062 41.76319854 -73.42677993 38.63146269 -68 35.5 C-61.47766725 31.73636081 -54.95486238 27.97355378 -48.4296875 24.21484375 C-47.34518311 23.58964844 -46.26067871 22.96445312 -45.14331055 22.3203125 C-42.98172536 21.07506375 -40.81914256 19.83154496 -38.65551758 18.58984375 C-33.13856516 15.41737556 -27.65388376 12.20172871 -22.20703125 8.91015625 C-20.56468506 7.92607788 -20.56468506 7.92607788 -18.88916016 6.92211914 C-16.80206611 5.66913062 -14.72189726 4.40451135 -12.64990234 3.12670898 C-11.71742676 2.56927002 -10.78495117 2.01183105 -9.82421875 1.4375 C-9.01041748 0.94121094 -8.19661621 0.44492187 -7.3581543 -0.06640625 C-4.38526113 -1.24337524 -3.01739266 -0.98595662 0 0 Z " fill="#E4E4E4" transform="translate(152,2)"/>
<path d="M0 0 C2.08544922 1.54272461 2.08544922 1.54272461 7.08544922 8.54272461 C0.81544922 8.87272461 -5.45455078 9.20272461 -11.91455078 9.54272461 C-10.92455078 10.53272461 -10.92455078 10.53272461 -9.91455078 11.54272461 C-9.72705078 14.10522461 -9.72705078 14.10522461 -9.91455078 16.54272461 C-10.40955078 17.03772461 -10.40955078 17.03772461 -10.91455078 17.54272461 C1.95544922 18.03772461 1.95544922 18.03772461 15.08544922 18.54272461 C16.24044922 20.81147461 17.39544922 23.08022461 18.58544922 25.41772461 C18.95089844 26.13041504 19.31634766 26.84310547 19.69287109 27.57739258 C22.08544922 32.32050239 22.08544922 32.32050239 22.08544922 34.54272461 C20.87896729 34.56778076 19.67248535 34.59283691 18.42944336 34.61865234 C13.96969261 34.71254984 9.51010409 34.81281294 5.05053711 34.91503906 C3.11730737 34.95845502 1.18403763 35.00012503 -0.74926758 35.04003906 C-3.5219328 35.09758092 -6.29439535 35.16132081 -9.06689453 35.22631836 C-10.37157936 35.2513871 -10.37157936 35.2513871 -11.70262146 35.27696228 C-15.62571044 34.99298674 -15.62571044 34.99298674 -18.91455078 36.54272461 C-19.16462808 39.00082459 -19.16462808 39.00082459 -18.91455078 41.54272461 C-16.54822071 43.90905468 -16.04818923 43.80379697 -12.83203125 43.86157227 C-11.99131073 43.88144196 -11.15059021 43.90131165 -10.28439331 43.92178345 C-9.37601715 43.93333466 -8.46764099 43.94488586 -7.53173828 43.95678711 C-6.60233429 43.97615326 -5.6729303 43.99551941 -4.71536255 44.01547241 C-1.74018598 44.07536146 1.23502909 44.12169071 4.21044922 44.16772461 C6.22478922 44.20589582 8.23911276 44.24494704 10.25341797 44.28491211 C15.19729497 44.38107061 20.14124839 44.465067 25.08544922 44.54272461 C26.62016741 49.32593599 27.33409382 53.32286827 27.31591797 58.39428711 C27.31398438 59.65756836 27.31205078 60.92084961 27.31005859 62.22241211 C27.2978125 63.52436523 27.28556641 64.82631836 27.27294922 66.16772461 C27.27198242 68.13225586 27.27198242 68.13225586 27.27099609 70.13647461 C27.24635627 75.49152953 27.13998703 80.27003554 26.08544922 85.54272461 C13.87544922 85.87272461 1.66544922 86.20272461 -10.91455078 86.54272461 C-10.58455078 86.87272461 -10.25455078 87.20272461 -9.91455078 87.54272461 C-9.72705078 89.98022461 -9.72705078 89.98022461 -9.91455078 92.54272461 C-10.57455078 93.20272461 -11.23455078 93.86272461 -11.91455078 94.54272461 C5.41044922 95.03772461 5.41044922 95.03772461 23.08544922 95.54272461 C19.30963904 108.12875855 19.30963904 108.12875855 17.08544922 110.54272461 C14.45234034 111.07240563 12.4315404 111.26491852 9.79248047 111.24975586 C9.08645187 111.26487717 8.38042328 111.27999847 7.65299988 111.295578 C5.40099313 111.3385195 3.15032488 111.34729794 0.89794922 111.35522461 C-0.63008132 111.37836433 -2.1580799 111.40372859 -3.68603516 111.43139648 C-7.42899231 111.49431095 -11.17111143 111.52659591 -14.91455078 111.54272461 C-13.26455078 112.53272461 -11.61455078 113.52272461 -9.91455078 114.54272461 C-11.28438581 117.70388236 -11.90361458 118.53543381 -14.91455078 120.54272461 C-6.66455078 120.87272461 1.58544922 121.20272461 10.08544922 121.54272461 C2.50110776 131.65517988 -5.77948667 140.50443308 -14.79586792 149.32644653 C-34.08175333 168.25849141 -47.8536347 187.13940543 -54.91455078 213.54272461 C-59.05703598 212.27930842 -62.60502733 210.73568155 -66.32861328 208.53100586 C-67.33794922 207.93739258 -68.34728516 207.3437793 -69.38720703 206.73217773 C-70.42748047 206.1127832 -71.46775391 205.49338867 -72.53955078 204.85522461 C-73.55662109 204.25516602 -74.57369141 203.65510742 -75.62158203 203.03686523 C-81.13258558 199.78544299 -81.13258558 199.78544299 -82.9675045 198.63992119 C-85.03430126 197.43084951 -85.03430126 197.43084951 -87.83054543 196.27830696 C-96.24427955 192.26564937 -96.24427955 192.26564937 -98.0078907 187.73230648 C-98.39546895 184.19199035 -98.40006009 180.82340554 -98.27685547 177.26367188 C-98.27346649 175.92275804 -98.27537864 174.58182196 -98.28216553 173.24092102 C-98.28559761 169.61551261 -98.21526664 165.99490581 -98.13127804 162.37061048 C-98.05605637 158.57788554 -98.0491979 154.78503972 -98.03497314 150.99168396 C-97.99773275 143.81558438 -97.89934764 136.64168896 -97.77877927 129.4665584 C-97.64446267 121.29515898 -97.57862629 113.123652 -97.51843405 104.95142281 C-97.39313451 88.14723478 -97.18218729 71.3452613 -96.91455078 54.54272461 C-96.18977539 54.12498779 -95.465 53.70725098 -94.71826172 53.27685547 C-91.9671431 51.69100146 -89.21618696 50.10486605 -86.46533203 48.51855469 C-84.71415063 47.50882387 -82.9627908 46.49940254 -81.21142578 45.48999023 C-73.76616614 41.19627516 -66.33436815 36.88024559 -58.91455078 32.54272461 C-49.40335457 26.98601526 -39.8782767 21.45398658 -30.32226562 15.97460938 C-25.24617351 13.06127003 -20.19295921 10.12242046 -15.19189453 7.08178711 C-14.31637939 6.55544678 -13.44086426 6.02910645 -12.53881836 5.48681641 C-10.91730951 4.50934927 -9.30329146 3.51930432 -7.69848633 2.51464844 C-6.63368042 1.87692505 -6.63368042 1.87692505 -5.54736328 1.22631836 C-4.93779785 0.85047607 -4.32823242 0.47463379 -3.70019531 0.08740234 C-1.91455078 -0.45727539 -1.91455078 -0.45727539 0 0 Z " fill="#E5E5E5" transform="translate(127.91455078125,26.457275390625)"/>
<path d="M0 0 C2.3581543 1.16064453 2.3581543 1.16064453 4.82421875 2.6328125 C5.75669434 3.18380615 6.68916992 3.7347998 7.64990234 4.30249023 C9.15351318 5.20463257 9.15351318 5.20463257 10.6875 6.125 C12.86025981 7.41086159 15.03345157 8.69599352 17.20703125 9.98046875 C18.32932129 10.6461084 19.45161133 11.31174805 20.60791016 11.99755859 C26.00694148 15.18475126 31.4405284 18.31124675 36.875 21.4375 C39.05994368 22.69653156 41.24483925 23.95564661 43.4296875 25.21484375 C44.51475586 25.83987793 45.59982422 26.46491211 46.71777344 27.10888672 C53.22729589 30.85946399 59.7339478 34.61501989 66.24072266 38.37036133 C71.70534663 41.52385162 77.17147902 44.6746704 82.640625 47.8203125 C83.74792969 48.45775391 84.85523438 49.09519531 85.99609375 49.75195312 C88.04498654 50.9313578 90.09439311 52.10987081 92.14453125 53.28710938 C94.12173439 54.42577829 96.07910955 55.59949934 98.01626587 56.80503845 C101.04992573 58.59557926 104.11125017 59.81905427 107.41293335 61.03846741 C113.83137021 63.67994801 119.54953528 66.53842878 124 72 C127.73567233 81.89385408 126.6346497 93.21680157 126.23066664 103.60748506 C126.09214697 107.77599919 126.08014188 111.94494202 126.05410767 116.11540222 C125.98599865 123.99474033 125.8059011 131.86727999 125.58441889 139.74363679 C125.33761371 148.71740863 125.21734062 157.69152393 125.10711932 166.66785014 C124.87778906 185.11574062 124.49141875 203.55732212 124 222 C123.28686142 222.39824478 122.57372284 222.79648956 121.838974 223.20680237 C119.15304822 224.70726489 116.46755344 226.20849529 113.78233337 227.71022034 C112.06464459 228.67055196 110.3464755 229.63002433 108.6282959 230.58947754 C102.56972243 233.97850939 96.53334902 237.39600837 90.5625 240.9375 C89.86624008 241.35030716 89.16998016 241.76311432 88.45262146 242.18843079 C87.81856888 242.56452988 87.1845163 242.94062897 86.53125 243.328125 C80.90132079 246.66001947 75.2307813 249.92142872 69.5625 253.1875 C68.45672607 253.82478027 67.35095215 254.46206055 66.21166992 255.11865234 C62.8080747 257.0796138 59.40408111 259.03988215 56 261 C51.6244921 263.51995295 47.24952728 266.04084514 42.875 268.5625 C41.80967041 269.17617432 40.74434082 269.78984863 39.64672852 270.42211914 C34.21396375 273.55512206 28.79093474 276.70353167 23.3828125 279.87890625 C21.7743042 280.82237915 21.7743042 280.82237915 20.13330078 281.78491211 C18.11695917 282.9690454 16.10217981 284.15584504 14.08935547 285.34594727 C12.27316395 286.41244481 10.44721162 287.4625346 8.61083984 288.49389648 C5.97733583 289.96820301 5.97733583 289.96820301 3.50244141 291.71118164 C0.94289784 293.32224816 -1.03565062 294.38021234 -4 295 C-8.38097826 293.8817182 -11.8501396 291.62354085 -15.625 289.1875 C-16.71111572 288.53257568 -17.79723145 287.87765137 -18.91625977 287.20288086 C-21.18204929 285.834823 -23.43829877 284.4508485 -25.68505859 283.05175781 C-29.74431806 280.53930999 -33.86474127 278.14549354 -37.99902344 275.75927734 C-40.97698509 274.03969995 -43.94448556 272.30317777 -46.91015625 270.5625 C-53.21570465 266.86786663 -59.54297534 263.2115276 -65.875 259.5625 C-66.95370361 258.94068848 -68.03240723 258.31887695 -69.14379883 257.67822266 C-72.42892251 255.78500101 -75.71439728 253.89239017 -79 252 C-83.37542829 249.47990911 -87.7505147 246.95922746 -92.125 244.4375 C-93.18509277 243.82640381 -94.24518555 243.21530762 -95.33740234 242.58569336 C-104.11389293 237.52150972 -112.86884081 232.42095447 -121.61376953 227.30249023 C-122.55591309 226.75149658 -123.49805664 226.20050293 -124.46875 225.6328125 C-125.71301758 224.90408936 -125.71301758 224.90408936 -126.98242188 224.16064453 C-128.30046576 223.40241841 -129.6399569 222.68002155 -131 222 C-131.56210665 202.68582813 -131.98453963 183.37332673 -132.24349213 164.05265617 C-132.36696342 155.08000283 -132.53504797 146.11244578 -132.81054688 137.14306641 C-133.05073874 129.31940343 -133.20480495 121.49942946 -133.25812387 113.6721822 C-133.28928147 109.53000712 -133.36166956 105.39837685 -133.53752136 101.25960922 C-134.56388886 76.15055187 -134.56388886 76.15055187 -128.64449692 69.25675011 C-122.91452131 64.63646905 -116.63495443 61.69649996 -109.78815842 59.09526253 C-106.21454654 57.69145306 -103.13992694 55.9013379 -99.8828125 53.87890625 C-97.96389348 52.77282692 -96.04463128 51.66734273 -94.125 50.5625 C-91.94009462 49.30340198 -89.75519908 48.04428689 -87.5703125 46.78515625 C-86.48524414 46.16012207 -85.40017578 45.53508789 -84.28222656 44.89111328 C-78.85340062 41.76319854 -73.42677993 38.63146269 -68 35.5 C-61.47766725 31.73636081 -54.95486238 27.97355378 -48.4296875 24.21484375 C-47.34518311 23.58964844 -46.26067871 22.96445312 -45.14331055 22.3203125 C-42.98172536 21.07506375 -40.81914256 19.83154496 -38.65551758 18.58984375 C-33.13856516 15.41737556 -27.65388376 12.20172871 -22.20703125 8.91015625 C-20.56468506 7.92607788 -20.56468506 7.92607788 -18.88916016 6.92211914 C-16.80206611 5.66913062 -14.72189726 4.40451135 -12.64990234 3.12670898 C-11.71742676 2.56927002 -10.78495117 2.01183105 -9.82421875 1.4375 C-9.01041748 0.94121094 -8.19661621 0.44492187 -7.3581543 -0.06640625 C-4.38526113 -1.24337524 -3.01739266 -0.98595662 0 0 Z M-12.1875 16 C-13.16879883 16.57234375 -13.16879883 16.57234375 -14.16992188 17.15625 C-15.78333545 18.09838932 -17.39212298 19.04844266 -19 20 C-18.50693359 20.64001953 -18.50693359 20.64001953 -18.00390625 21.29296875 C-8.11702304 34.28792365 1.9646518 47.88398674 6 64 C6.27714844 65.07636719 6.55429688 66.15273437 6.83984375 67.26171875 C12.69925803 93.53457631 8.81525297 120.76250212 -5 144 C-12.70355433 155.16201622 -21.92769274 164.97683379 -31.53125 174.515625 C-32.03187454 175.0134549 -32.53249908 175.51128479 -33.04829407 176.02420044 C-35.58260342 178.54230143 -38.12343945 181.05317041 -40.67651367 183.55224609 C-46.56392254 189.34800708 -52.17409209 195.27213199 -57 202 C-57 202.33 -57 202.66 -57 203 C-50.07 203 -43.14 203 -36 203 C-36.66 203.99 -37.32 204.98 -38 206 C-37.71725862 209.31086259 -37.71725862 209.31086259 -36 212 C-45.24 212.33 -54.48 212.66 -64 213 C-69.27586863 222.59306999 -69.27586863 222.59306999 -69 228 C-67.85934082 228.01981934 -66.71868164 228.03963867 -65.54345703 228.06005859 C-61.32024677 228.13600567 -57.09738601 228.22473928 -52.87451172 228.31738281 C-51.04515471 228.35571777 -49.21572115 228.39056263 -47.38623047 228.421875 C-44.75981241 228.46742805 -42.13392341 228.52543731 -39.5078125 228.5859375 C-38.68693146 228.59748871 -37.86605042 228.60903992 -37.02029419 228.62094116 C-31.22774341 228.77225659 -31.22774341 228.77225659 -29 231 C-28.8125 233.5625 -28.8125 233.5625 -29 236 C-30.52791083 237.52791083 -31.92989408 237.16183457 -34.06079102 237.20532227 C-34.92160782 237.22526749 -35.78242462 237.24521271 -36.66932678 237.26576233 C-38.07244362 237.29083107 -38.07244362 237.29083107 -39.50390625 237.31640625 C-40.45692123 237.33718735 -41.40993622 237.35796844 -42.39183044 237.37937927 C-45.4486441 237.44498177 -48.50554656 237.50380918 -51.5625 237.5625 C-53.62956663 237.60567506 -55.69662414 237.64928901 -57.76367188 237.69335938 C-62.84235595 237.80067401 -67.9211297 237.90191091 -73 238 C-73 239.65 -73 241.3 -73 243 C-72.33170166 243.3717334 -71.66340332 243.7434668 -70.97485352 244.12646484 C-48.60026206 256.58345194 -48.60026206 256.58345194 -39.5625 261.9375 C-38.92546143 262.31285889 -38.28842285 262.68821777 -37.63208008 263.07495117 C-33.78464138 265.34414437 -29.94833576 267.63097502 -26.11851501 269.92979431 C-23.75769811 271.34193645 -21.38943339 272.74126549 -19.01974487 274.13845825 C-17.84821543 274.8328992 -16.67979015 275.53260617 -15.51467896 276.23776245 C-13.87723395 277.22797223 -12.22785546 278.19836525 -10.578125 279.16796875 C-9.62325195 279.73797607 -8.66837891 280.3079834 -7.68457031 280.89526367 C-4.4968381 282.2070578 -3.22785588 282.10743697 0 281 C2.41150347 279.85251119 2.41150347 279.85251119 4.82421875 278.3671875 C5.75669434 277.81619385 6.68916992 277.2652002 7.64990234 276.69750977 C9.15351318 275.79536743 9.15351318 275.79536743 10.6875 274.875 C12.86025981 273.58913841 15.03345157 272.30400648 17.20703125 271.01953125 C18.32932129 270.3538916 19.45161133 269.68825195 20.60791016 269.00244141 C26.00694148 265.81524874 31.4405284 262.68875325 36.875 259.5625 C39.05994368 258.30346844 41.24483925 257.04435339 43.4296875 255.78515625 C44.51475586 255.16012207 45.59982422 254.53508789 46.71777344 253.89111328 C52.1465994 250.76319853 57.57320669 247.63143954 63 244.5 C69.07716164 240.99355517 75.15440473 237.48725299 81.23284912 233.98303223 C82.98341241 232.97380896 84.73390411 231.96446164 86.484375 230.95507812 C88.66392165 229.6983234 90.84359832 228.44179414 93.0234375 227.18554688 C94.96428748 226.06630672 96.89849955 224.93542624 98.8238945 223.7898035 C102 222 102 222 105.1577034 220.59989834 C111.4193975 217.71781371 111.4193975 217.71781371 115.08367157 212.19500923 C115.48169944 208.6510423 115.48567284 205.28540567 115.36230469 201.72094727 C115.35891571 200.38003343 115.36082786 199.03909736 115.36761475 197.69819641 C115.37104683 194.072788 115.30071586 190.4521812 115.21672726 186.82788587 C115.14150559 183.03516093 115.13464712 179.24231511 115.12042236 175.44895935 C115.08318197 168.27285978 114.98479686 161.09896435 114.86422849 153.92383379 C114.72991188 145.75243437 114.66407551 137.58092739 114.60388327 129.4086982 C114.47858373 112.60451017 114.26763651 95.80253669 114 79 C113.27522461 78.58226318 112.55044922 78.16452637 111.80371094 77.73413086 C109.05259232 76.14827685 106.30163618 74.56214144 103.55078125 72.97583008 C101.79959985 71.96609926 100.04824002 70.95667793 98.296875 69.94726562 C90.85161497 65.65355032 83.41985926 61.3374497 76 57 C64.46966264 50.26429108 52.90615473 43.58710296 41.33496094 36.921875 C36.76530723 34.28846988 32.19791402 31.65115807 27.63061523 29.01367188 C24.35255273 27.12168982 21.0728517 25.23257388 17.79296875 23.34375 C14.30846513 21.33613331 10.83051779 19.31853121 7.36328125 17.28125 C6.70489258 16.89702881 6.04650391 16.51280762 5.36816406 16.11694336 C3.72340393 15.15646215 2.08220658 14.18988648 0.44140625 13.22265625 C-4.62784068 10.68397739 -7.78037392 13.38313075 -12.1875 16 Z M-28.5300293 25.13305664 C-29.53461182 25.71949951 -30.53919434 26.30594238 -31.57421875 26.91015625 C-32.70424316 27.56314697 -33.83426758 28.2161377 -34.99853516 28.88891602 C-36.2283056 29.61324796 -37.45795755 30.33778112 -38.6875 31.0625 C-39.95829584 31.80160462 -41.22962411 32.53979448 -42.50146484 33.27709961 C-45.73272865 35.15338393 -48.95709197 37.04118097 -52.17950439 38.93261719 C-54.87527872 40.51318853 -57.57631505 42.08467904 -60.27734375 43.65625 C-64.18112835 45.92893493 -68.08175697 48.20690645 -71.98046875 50.48828125 C-79.46129077 54.86022229 -86.97054914 59.18277452 -94.48291016 63.50024414 C-96.46829927 64.64286437 -98.43695104 65.8151497 -100.38619995 67.01838684 C-102.96031547 68.530936 -105.4639353 69.53870439 -108.29553223 70.4750061 C-113.39027348 72.39429999 -117.69104279 74.55523897 -121 79 C-123.9785573 87.98143066 -123.03265322 98.11988705 -122.72369695 107.47629595 C-122.61683597 111.26073166 -122.60739502 115.04543474 -122.58726501 118.83114624 C-122.53458846 125.98697652 -122.3953413 133.13834948 -122.22432369 140.29222333 C-122.03377146 148.44160702 -121.94070964 156.59121301 -121.85550129 164.74227262 C-121.67818078 181.49745095 -121.37951913 198.24815536 -121 215 C-119.82195801 215.67204468 -119.82195801 215.67204468 -118.62011719 216.35766602 C-115.64524653 218.05512564 -112.67067451 219.75310642 -109.69628906 221.45141602 C-108.42036264 222.17980803 -107.14432491 222.90800511 -105.86816406 223.63598633 C-104.01075825 224.69558515 -102.15378168 225.755933 -100.296875 226.81640625 C-99.38053284 227.33891464 -99.38053284 227.33891464 -98.44567871 227.87197876 C-95.4405543 229.58911431 -92.4461902 231.3212928 -89.47070312 233.08935547 C-88.39240234 233.7288916 -87.31410156 234.36842773 -86.203125 235.02734375 C-84.76694824 235.88767212 -84.76694824 235.88767212 -83.30175781 236.76538086 C-81.14158279 238.15755929 -81.14158279 238.15755929 -79 238 C-78.6596875 236.80246094 -78.319375 235.60492188 -77.96875 234.37109375 C-70.65815789 209.47910579 -56.87324609 191.77509144 -38.62109375 173.63671875 C-38.14142654 173.15984619 -37.66175934 172.68297363 -37.16755676 172.19165039 C-34.75917977 169.79940277 -32.34390926 167.41526395 -29.91723633 165.04150391 C-24.1677315 159.36715934 -18.7300007 153.56729457 -14 147 C-14 146.67 -14 146.34 -14 146 C-22.25 145.67 -30.5 145.34 -39 145 C-37.35 143.68 -35.7 142.36 -34 141 C-34 140.34 -34 139.68 -34 139 C-35.65 138.01 -37.3 137.02 -39 136 C-28.44 135.67 -17.88 135.34 -7 135 C-1.98538237 126.06708726 -1.98538237 126.06708726 -1 120 C-12.55 119.67 -24.1 119.34 -36 119 C-35.34 118.34 -34.68 117.68 -34 117 C-33.7499227 114.45809998 -33.7499227 114.45809998 -34 112 C-34.33 111.67 -34.66 111.34 -35 111 C-22.79 110.67 -10.58 110.34 2 110 C3.30039838 103.4980081 3.18424536 97.23842628 3.1875 90.625 C3.19974609 89.32304688 3.21199219 88.02109375 3.22460938 86.6796875 C3.22654297 85.41640625 3.22847656 84.153125 3.23046875 82.8515625 C3.23457764 81.70510254 3.23868652 80.55864258 3.24291992 79.37744141 C2.97251347 75.61784057 2.14820295 72.57857061 1 69 C-0.26183105 68.98018066 -1.52366211 68.96036133 -2.82373047 68.93994141 C-7.49418492 68.86401235 -12.1643226 68.77527588 -16.83447266 68.68261719 C-18.85784666 68.64427479 -20.88129006 68.60943129 -22.90478516 68.578125 C-25.80917203 68.53258831 -28.71307894 68.47457591 -31.6171875 68.4140625 C-32.52556366 68.40251129 -33.43393982 68.39096008 -34.36984253 68.37905884 C-35.63092331 68.3492543 -35.63092331 68.3492543 -36.91748047 68.31884766 C-37.65916473 68.30552399 -38.400849 68.29220032 -39.16500854 68.2784729 C-41 68 -41 68 -43 66 C-43.1875 63.4375 -43.1875 63.4375 -43 61 C-40.86913558 58.86913558 -36.10833065 59.74039128 -33.15234375 59.68359375 C-32.2659169 59.66281265 -31.37949005 59.64203156 -30.46620178 59.62062073 C-27.623383 59.555026 -24.78046883 59.49619448 -21.9375 59.4375 C-20.01496394 59.3943242 -18.09243766 59.35071022 -16.16992188 59.30664062 C-11.44671332 59.19933457 -6.72340847 59.09809549 -2 59 C-2.47153691 57.58336718 -2.94325161 56.16679354 -3.41503906 54.75024414 C-3.67770569 53.96138321 -3.94037231 53.17252228 -4.21099854 52.35975647 C-4.47136902 51.58103683 -4.7317395 50.8023172 -5 50 C-5.2025238 49.30317612 -5.40504761 48.60635223 -5.6137085 47.88841248 C-6.37925751 45.6311373 -6.37925751 45.6311373 -9 43 C-13.41285838 41.98122706 -17.73752894 42.02152136 -22.25 42.0625 C-24.08304688 42.03833008 -24.08304688 42.03833008 -25.953125 42.01367188 C-28.96988358 41.97831924 -31.98323645 41.97495541 -35 42 C-34.505 41.505 -34.505 41.505 -34 41 C-33.7499227 38.54190002 -33.7499227 38.54190002 -34 36 C-34.99 35.01 -34.99 35.01 -36 34 C-29.73 33.67 -23.46 33.34 -17 33 C-17.928125 31.700625 -18.85625 30.40125 -19.8125 29.0625 C-20.33457031 28.33160156 -20.85664063 27.60070312 -21.39453125 26.84765625 C-23.79579123 24.08416241 -25.17072712 23.62861571 -28.5300293 25.13305664 Z " fill="#010101" transform="translate(152,2)"/>
<path d="M0 0 C2.54174805 1.25244141 2.54174805 1.25244141 5.26171875 2.8515625 C6.28458984 3.44775391 7.30746094 4.04394531 8.36132812 4.65820312 C9.45896484 5.30724609 10.55660156 5.95628906 11.6875 6.625 C12.84916922 7.30478918 14.01128693 7.98381248 15.17382812 8.66210938 C17.58817446 10.07158303 20.00055922 11.48432987 22.41162109 12.89941406 C27.92318583 16.13055521 33.4629938 19.31272995 39 22.5 C41.16679965 23.74976947 43.3334659 24.99977024 45.5 26.25 C46.5725 26.86875 47.645 27.4875 48.75 28.125 C53.625 30.9375 53.625 30.9375 58.5 33.75 C59.57386963 34.3694751 60.64773926 34.9889502 61.75415039 35.62719727 C63.90721037 36.86947806 66.06004478 38.11214988 68.21264648 39.35522461 C73.24101461 42.25836112 78.27139814 45.15778867 83.31021118 48.04275513 C85.08432545 49.05877184 86.85769919 50.07606928 88.63085938 51.09375 C90.84815314 52.36582292 93.06681075 53.63552285 95.28710938 54.90234375 C101.35146171 58.38537955 107.24280382 62.02848736 113 66 C109.57142523 68.86477513 106.12061062 71.20603564 102.23046875 73.3984375 C101.10672852 74.03539551 99.98298828 74.67235352 98.82519531 75.32861328 C98.23275024 75.66185608 97.64030518 75.99509888 97.02990723 76.33843994 C93.86764512 78.11756594 90.71379509 79.91151715 87.55859375 81.703125 C86.91866486 82.06596588 86.27873596 82.42880676 85.61941528 82.80264282 C79.63628717 86.1979019 73.68786871 89.65121558 67.75 93.125 C66.77554932 93.69468506 65.80109863 94.26437012 64.79711914 94.85131836 C62.84009373 95.99601196 60.88330491 97.14111013 58.92675781 98.28662109 C53.99491927 101.17381186 49.06038212 104.05637167 44.125 106.9375 C42.66465332 107.79033569 42.66465332 107.79033569 41.17480469 108.66040039 C35.78935719 111.80191143 30.39586466 114.92901684 24.9921875 118.0390625 C24.40680206 118.37609695 23.82141663 118.71313141 23.21829224 119.06037903 C20.38914279 120.68887115 17.55890493 122.3154239 14.72705078 123.93920898 C9.60106088 126.88626992 4.53515169 129.85891655 -0.37890625 133.15014648 C-2 134 -2 134 -5 134 C-4.40819665 130.11498509 -3.21389499 127.29850909 -1.3125 123.875 C1.47348823 118.45780067 3.48318434 112.99483349 5.3125 107.1875 C5.56668701 106.38747559 5.82087402 105.58745117 6.08276367 104.76318359 C13.15518328 81.66299224 9.83002702 54.46190699 -0.99316406 33.03369141 C-5.94053452 23.80183345 -12.03942224 15.80340346 -19 8 C-15.94466622 5.48795621 -12.91912331 3.17998207 -9.5 1.1875 C-8.7678125 0.74792969 -8.035625 0.30835938 -7.28125 -0.14453125 C-4.35814313 -1.24069633 -2.99858022 -0.81675406 0 0 Z " fill="#EFF0F0" transform="translate(152,15)"/>
<path d="M0 0 C1.96923828 1.62109375 1.96923828 1.62109375 6.96923828 8.62109375 C0.69923828 8.95109375 -5.57076172 9.28109375 -12.03076172 9.62109375 C-11.04076172 10.61109375 -11.04076172 10.61109375 -10.03076172 11.62109375 C-9.84326172 14.18359375 -9.84326172 14.18359375 -10.03076172 16.62109375 C-10.52576172 17.11609375 -10.52576172 17.11609375 -11.03076172 17.62109375 C1.83923828 18.11609375 1.83923828 18.11609375 14.96923828 18.62109375 C16.12423828 20.88984375 17.27923828 23.15859375 18.46923828 25.49609375 C18.8346875 26.20878418 19.20013672 26.92147461 19.57666016 27.65576172 C21.96923828 32.39887153 21.96923828 32.39887153 21.96923828 34.62109375 C20.76275635 34.6461499 19.55627441 34.67120605 18.31323242 34.69702148 C13.85348167 34.79091898 9.39389315 34.89118208 4.93432617 34.9934082 C3.00109644 35.03682416 1.06782669 35.07849417 -0.86547852 35.1184082 C-3.63814374 35.17595006 -6.41060629 35.23968995 -9.18310547 35.3046875 C-10.4877903 35.32975624 -10.4877903 35.32975624 -11.8188324 35.35533142 C-15.74192138 35.07135588 -15.74192138 35.07135588 -19.03076172 36.62109375 C-19.28083902 39.07919373 -19.28083902 39.07919373 -19.03076172 41.62109375 C-16.66443164 43.98742383 -16.16440016 43.88216611 -12.94824219 43.93994141 C-12.10752167 43.9598111 -11.26680115 43.97968079 -10.40060425 44.00015259 C-9.49222809 44.0117038 -8.58385193 44.023255 -7.64794922 44.03515625 C-6.71854523 44.0545224 -5.78914124 44.07388855 -4.83157349 44.09384155 C-1.85639691 44.1537306 1.11881816 44.20005985 4.09423828 44.24609375 C6.10857828 44.28426496 8.12290182 44.32331618 10.13720703 44.36328125 C15.08108404 44.45943975 20.02503745 44.54343615 24.96923828 44.62109375 C26.50395648 49.40430513 27.21788288 53.40123741 27.19970703 58.47265625 C27.19777344 59.7359375 27.19583984 60.99921875 27.19384766 62.30078125 C27.18160156 63.60273437 27.16935547 64.9046875 27.15673828 66.24609375 C27.15577148 68.210625 27.15577148 68.210625 27.15478516 70.21484375 C27.13014533 75.56989867 27.02377609 80.34840468 25.96923828 85.62109375 C13.75923828 85.95109375 1.54923828 86.28109375 -11.03076172 86.62109375 C-10.70076172 86.95109375 -10.37076172 87.28109375 -10.03076172 87.62109375 C-9.84326172 90.05859375 -9.84326172 90.05859375 -10.03076172 92.62109375 C-10.69076172 93.28109375 -11.35076172 93.94109375 -12.03076172 94.62109375 C5.29423828 95.11609375 5.29423828 95.11609375 22.96923828 95.62109375 C19.19074504 108.21607121 19.19074504 108.21607121 16.96923828 110.62109375 C7.69001248 113.18453284 -0.82573495 111.28583546 -9.14379883 106.77368164 C-13.11329537 104.45113673 -17.02257094 102.04535416 -20.90771484 99.58447266 C-25.17174778 96.90378528 -29.50716549 94.35166231 -33.84643555 91.79516602 C-37.24633077 89.79205636 -40.63655 87.77319453 -44.02685547 85.75390625 C-51.81866699 81.12671041 -59.6922654 76.64503646 -67.57003784 72.16635132 C-76.46689445 67.10707634 -85.30201478 61.96522453 -94.03076172 56.62109375 C-92.68535456 52.13799129 -91.11811229 50.62951251 -87.06201172 48.37890625 C-86.02947266 47.79560547 -84.99693359 47.21230469 -83.93310547 46.61132812 C-82.81033203 45.99580078 -81.68755859 45.38027344 -80.53076172 44.74609375 C-79.35411165 44.08683474 -78.17834351 43.42599944 -77.00341797 42.76367188 C-74.56148021 41.38871809 -72.11588436 40.0206303 -69.66748047 38.65722656 C-64.0856714 35.54161743 -58.56132616 32.32647057 -53.03076172 29.12109375 C-50.88260156 27.88102986 -48.73416243 26.6414491 -46.58544922 25.40234375 C-45.51520508 24.78488281 -44.44496094 24.16742188 -43.34228516 23.53125 C-40.49436981 21.88851263 -37.64622404 20.24617639 -34.7979126 18.60412598 C-33.04734931 17.59490271 -31.29685761 16.58555539 -29.54638672 15.57617188 C-27.36684007 14.31941715 -25.18716339 13.06288789 -23.00732422 11.80664062 C-22.00701172 11.22978516 -21.00669922 10.65292969 -19.97607422 10.05859375 C-19.00186523 9.50171875 -18.02765625 8.94484375 -17.02392578 8.37109375 C-14.9109869 7.13573112 -12.82091762 5.86084658 -10.74853516 4.55859375 C-9.6840918 3.89859375 -8.61964844 3.23859375 -7.52294922 2.55859375 C-6.08604736 1.64400391 -6.08604736 1.64400391 -4.62011719 0.7109375 C-2.03076172 -0.37890625 -2.03076172 -0.37890625 0 0 Z " fill="#EFEEEF" transform="translate(128.03076171875,26.37890625)"/>
<path d="M0 0 C19.26739381 18.92996134 29.75767222 41.85885164 30.35351562 68.96972656 C30.57298501 101.20179792 17.13553935 126.40421676 -5 149 C-6.8405322 150.84191191 -8.68382554 152.68065951 -10.53125 154.515625 C-11.03187454 155.0134549 -11.53249908 155.51128479 -12.04829407 156.02420044 C-14.58260342 158.54230143 -17.12343945 161.05317041 -19.67651367 163.55224609 C-25.59863353 169.383167 -30.93595468 175.40412603 -36 182 C-26.1 182.495 -26.1 182.495 -16 183 C-16.33 185.31 -16.66 187.62 -17 190 C-16.34 190.99 -15.68 191.98 -15 193 C-24.57 193 -34.14 193 -44 193 C-44.66 194.98 -45.32 196.96 -46 199 C-47 202 -48 205 -49 208 C-47.29686646 207.97643433 -47.29686646 207.97643433 -45.55932617 207.95239258 C-41.34943731 207.89811968 -37.13957941 207.86365963 -32.92944336 207.83520508 C-31.10679933 207.8201124 -29.28419164 207.79963605 -27.46166992 207.77368164 C-24.842845 207.73731897 -22.22449993 207.72027876 -19.60546875 207.70703125 C-18.78974899 207.69154739 -17.97402924 207.67606354 -17.1335907 207.66011047 C-11.43159304 207.65841169 -11.43159304 207.65841169 -9.28022766 209.36112976 C-8 211 -8 211 -7.6875 213.5625 C-8 216 -8 216 -10 218 C-11.87295532 218.24050903 -11.87295532 218.24050903 -14.17431641 218.22705078 C-15.46542831 218.22682419 -15.46542831 218.22682419 -16.78262329 218.22659302 C-17.71287323 218.21627045 -18.64312317 218.20594788 -19.6015625 218.1953125 C-21.02896255 218.19106766 -21.02896255 218.19106766 -22.48519897 218.18673706 C-25.53192592 218.17551989 -28.57836154 218.15041263 -31.625 218.125 C-33.68749576 218.11497218 -35.74999612 218.10584599 -37.8125 218.09765625 C-42.87511267 218.07557554 -47.9375069 218.0410353 -53 218 C-53 219.32 -53 220.64 -53 222 C-55.91517292 220.92598892 -57.77810176 220.22189824 -60 218 C-52.46508414 191.48508774 -39.08979831 172.98405996 -19.62109375 153.63671875 C-18.90159294 152.92140991 -18.90159294 152.92140991 -18.16755676 152.19165039 C-15.75917977 149.79940277 -13.34390926 147.41526395 -10.91723633 145.04150391 C-5.12991901 139.32984116 0.0394009 133.44528545 5 127 C-3.25 126.67 -11.5 126.34 -20 126 C-18.02 123.69 -16.04 121.38 -14 119 C-14.804375 118.71125 -15.60875 118.4225 -16.4375 118.125 C-19 117 -19 117 -20 115 C-9.11 114.67 1.78 114.34 13 114 C14.98 109.38 16.96 104.76 19 100 C7.12 100 -4.76 100 -17 100 C-16.01 98.515 -16.01 98.515 -15 97 C-14.79502899 94.19872957 -14.73727116 92.52545768 -16 90 C-3.46 90 9.08 90 22 90 C22.020625 84.51375 22.04125 79.0275 22.0625 73.375 C22.071604 71.65458496 22.08070801 69.93416992 22.09008789 68.16162109 C22.09301134 66.78222735 22.09555888 65.40283274 22.09765625 64.0234375 C22.10277222 63.32001221 22.10788818 62.61658691 22.11315918 61.8918457 C22.11387277 57.82008395 21.78964796 53.99468969 21 50 C19.74340576 49.98541748 18.48681152 49.97083496 17.19213867 49.95581055 C12.53462108 49.89788396 7.87758984 49.82065089 3.22045898 49.73754883 C1.20393765 49.7042729 -0.81267742 49.67624932 -2.8293457 49.65356445 C-5.726481 49.62006744 -8.62275518 49.56775456 -11.51953125 49.51171875 C-12.42274612 49.50532883 -13.325961 49.4989389 -14.25654602 49.49235535 C-15.09719101 49.47256119 -15.937836 49.45276703 -16.80395508 49.43237305 C-17.54341873 49.42126999 -18.28288239 49.41016693 -19.04475403 49.39872742 C-21.54947609 48.887947 -22.45578781 48.00584349 -24 46 C-24.3125 43.4375 -24.3125 43.4375 -24 41 C-22 39 -22 39 -18.10107422 38.77294922 C-16.41891207 38.77326659 -14.73672981 38.78460604 -13.0546875 38.8046875 C-11.72716965 38.80893234 -11.72716965 38.80893234 -10.37283325 38.81326294 C-7.54008588 38.8244776 -4.70765216 38.8495843 -1.875 38.875 C0.04296419 38.88502815 1.96093333 38.89415428 3.87890625 38.90234375 C8.58605876 38.92442111 13.29297616 38.95895955 18 39 C17.24203125 37.51886719 17.24203125 37.51886719 16.46875 36.0078125 C15.81228987 34.71364824 15.15605133 33.41937155 14.5 32.125 C14.16613281 31.47402344 13.83226562 30.82304688 13.48828125 30.15234375 C11 25.2265625 11 25.2265625 11 23 C2.09 23 -6.82 23 -16 23 C-15.67 20.69 -15.34 18.38 -15 16 C-15.66 15.01 -16.32 14.02 -17 13 C-10.73 12.67 -4.46 12.34 2 12 C-0.31 9.36 -2.62 6.72 -5 4 C-3.35 2.68 -1.7 1.36 0 0 Z " fill="#2A3B60" transform="translate(132,22)"/>
<path d="M0 0 C0.90154816 0.00565979 1.80309631 0.01131958 2.73196411 0.01715088 C5.59530013 0.03943945 8.45735839 0.08962111 11.3203125 0.140625 C13.26821102 0.16069975 15.21612927 0.17894881 17.1640625 0.1953125 C21.9249672 0.23927953 26.68492364 0.30825437 31.4453125 0.390625 C31.4453125 3.690625 31.4453125 6.990625 31.4453125 10.390625 C25.71619678 10.48975784 19.98758411 10.5622184 14.2578125 10.61035156 C12.31013284 10.63042406 10.36251313 10.65768832 8.41503906 10.69238281 C5.60987529 10.74109352 2.80551063 10.76363741 0 10.78125 C-0.86585724 10.80189514 -1.73171448 10.82254028 -2.62380981 10.84381104 C-8.20019482 10.84586462 -11.30796784 10.10316066 -15.5546875 6.390625 C-15.5546875 5.730625 -15.5546875 5.070625 -15.5546875 4.390625 C-10.54617152 0.01211743 -6.47843915 -0.15446922 0 0 Z " fill="#F8BC1F" transform="translate(123.5546875,85.609375)"/>
<path d="M0 0 C0 1.32 0 2.64 0 4 C-3.465 5.485 -3.465 5.485 -7 7 C-7 7.66 -7 8.32 -7 9 C-5.75283203 8.83951172 -5.75283203 8.83951172 -4.48046875 8.67578125 C-3.39378906 8.55589844 -2.30710938 8.43601562 -1.1875 8.3125 C-0.10855469 8.18488281 0.97039062 8.05726562 2.08203125 7.92578125 C5 8 5 8 6.875 9.26953125 C8 11 8 11 8.1875 14.375 C6.71757927 18.86212643 5.04970339 19.85092354 1.10546875 22.15234375 C-1 23 -1 23 -5 23 C-5.33 23.99 -5.66 24.98 -6 26 C-8.14453125 27.640625 -8.14453125 27.640625 -10.8125 29.25 C-11.68519531 29.79140625 -12.55789062 30.3328125 -13.45703125 30.890625 C-16.36027829 32.1571721 -17.12012069 32.12401919 -20 31 C-21.28027344 29.54125977 -21.28027344 29.54125977 -22.359375 27.69140625 C-22.75253906 27.02689453 -23.14570313 26.36238281 -23.55078125 25.67773438 C-23.94652344 24.97970703 -24.34226563 24.28167969 -24.75 23.5625 C-25.16121094 22.86833984 -25.57242188 22.17417969 -25.99609375 21.45898438 C-29 16.30444093 -29 16.30444093 -29 14 C-24.38 11.69 -19.76 9.38 -15 7 C-14.67 8.32 -14.34 9.64 -14 11 C-16.31 12.32 -18.62 13.64 -21 15 C-21 15.99 -21 16.98 -21 18 C-20.0925 17.67 -19.185 17.34 -18.25 17 C-15 16 -15 16 -11 16 C-11 16.99 -11 17.98 -11 19 C-15.22222222 22 -15.22222222 22 -18 22 C-17.67 22.99 -17.34 23.98 -17 25 C-13.62537285 24.45276317 -11.91765 23.9451 -9 22 C-8.01 22 -7.02 22 -6 22 C-6 21.01 -6 20.02 -6 19 C-5.43410156 18.81824219 -4.86820313 18.63648437 -4.28515625 18.44921875 C-3.55167969 18.19785156 -2.81820312 17.94648437 -2.0625 17.6875 C-1.33160156 17.44386719 -0.60070312 17.20023438 0.15234375 16.94921875 C2.35932024 16.08759559 2.35932024 16.08759559 3 13 C-3.435 13.495 -3.435 13.495 -10 14 C-12 11 -12 11 -12.5625 8.6875 C-11.77759828 4.93741402 -9.82784857 3.49441319 -6.890625 1.16015625 C-4.48233477 -0.31765821 -2.76807405 -0.50328619 0 0 Z " fill="#0F0F0F" transform="translate(250,109)"/>
<path d="M0 0 C1.68216214 0.00031737 3.36434441 0.01165683 5.04638672 0.03173828 C6.37390457 0.03598312 6.37390457 0.03598312 7.72824097 0.04031372 C10.56098834 0.05152838 13.39342206 0.07663508 16.22607422 0.10205078 C18.14403841 0.11207893 20.06200755 0.12120507 21.97998047 0.12939453 C26.68713298 0.15147189 31.39405038 0.18601033 36.10107422 0.22705078 C39.10107422 6.85205078 39.10107422 6.85205078 39.10107422 10.22705078 C33.17458848 10.3011461 27.24837169 10.35562694 21.3215332 10.3918457 C19.30488387 10.40694257 17.28826743 10.42742193 15.27172852 10.45336914 C12.37491751 10.48971289 9.47854016 10.50676798 6.58154297 10.52001953 C5.67832809 10.53550339 4.77511322 10.55098724 3.8445282 10.56694031 C2.58356071 10.5672802 2.58356071 10.5672802 1.29711914 10.56762695 C0.55765549 10.57428879 -0.18180817 10.58095062 -0.94367981 10.58781433 C-3.46919598 10.1218299 -4.35240372 9.24295187 -5.89892578 7.22705078 C-6.21142578 4.66455078 -6.21142578 4.66455078 -5.89892578 2.22705078 C-3.89892578 0.22705078 -3.89892578 0.22705078 0 0 Z " fill="#F80A43" transform="translate(113.89892578125,60.77294921875)"/>
<path d="M0 0 C0.33 0.66 0.66 1.32 1 2 C2.70313354 1.97643433 2.70313354 1.97643433 4.44067383 1.95239258 C8.65056269 1.89811968 12.86042059 1.86365963 17.07055664 1.83520508 C18.89320067 1.8201124 20.71580836 1.79963605 22.53833008 1.77368164 C25.157155 1.73731897 27.77550007 1.72027876 30.39453125 1.70703125 C31.21025101 1.69154739 32.02597076 1.67606354 32.8664093 1.66011047 C38.56840696 1.65841169 38.56840696 1.65841169 40.71977234 3.36112976 C42 5 42 5 42.3125 7.5625 C42 10 42 10 40 12 C38.16500854 12.24050903 38.16500854 12.24050903 35.91748047 12.22705078 C34.65639969 12.22682419 34.65639969 12.22682419 33.36984253 12.22659302 C32.46146637 12.21627045 31.55309021 12.20594788 30.6171875 12.1953125 C29.68778351 12.1924826 28.75837952 12.18965271 27.80081177 12.18673706 C24.8254115 12.17552069 21.85030965 12.1504136 18.875 12.125 C16.86068142 12.11497208 14.84635814 12.1058459 12.83203125 12.09765625 C7.88790544 12.07557661 2.94400335 12.04103693 -2 12 C-1.435339 7.97145219 -0.84429085 3.98022828 0 0 Z " fill="#F70A42" transform="translate(82,228)"/>
<path d="M0 0 C12.54 0 25.08 0 38 0 C37.34 2.97 36.68 5.94 36 9 C24.45 9 12.9 9 1 9 C1 6.69 1 4.38 1 2 C0.67 1.34 0.34 0.68 0 0 Z " fill="#6E0947" transform="translate(116,112)"/>
<path d="M0 0 C2.375 1.625 2.375 1.625 4 4 C4.31452272 7.14522722 4.42041821 9.15916359 3 12 C3.78375 12.12375 4.5675 12.2475 5.375 12.375 C8 13 8 13 10 15 C6.54785147 17.30143236 5.76520676 17.13833854 1.8125 16.625 C0.91144531 16.51414063 0.01039063 16.40328125 -0.91796875 16.2890625 C-1.60503906 16.19367188 -2.29210937 16.09828125 -3 16 C-2.67 17.98 -2.34 19.96 -2 22 C-3.32 22.33 -4.64 22.66 -6 23 C-7.32206963 20.94311262 -8.63261099 18.8802472 -9.9375 16.8125 C-10.49727539 15.9452832 -10.49727539 15.9452832 -11.06835938 15.06054688 C-13.15834341 11.72786962 -14.53461241 8.92255255 -15 5 C-5.21131137 -1.09073959 -5.21131137 -1.09073959 0 0 Z " fill="#090909" transform="translate(197,141)"/>
<path d="M0 0 C1.79296875 0.01171875 1.79296875 0.01171875 4 1 C5.63227562 3.26525862 6.97775206 5.38457642 8.3125 7.8125 C8.68439453 8.44220703 9.05628906 9.07191406 9.43945312 9.72070312 C12.06768418 14.38495676 12.06768418 14.38495676 11.73046875 17.44921875 C11.48941406 17.96097656 11.24835938 18.47273438 11 19 C10.01 19 9.02 19 8 19 C6.68 16.69 5.36 14.38 4 12 C3.67 14.97 3.34 17.94 3 21 C0 22 0 22 -2.04296875 21.22265625 C-3.10451172 20.64837891 -3.10451172 20.64837891 -4.1875 20.0625 C-4.90292969 19.68222656 -5.61835938 19.30195313 -6.35546875 18.91015625 C-6.89816406 18.60980469 -7.44085938 18.30945313 -8 18 C-7.319375 19.093125 -6.63875 20.18625 -5.9375 21.3125 C-4.77734375 23.17578125 -4.77734375 23.17578125 -4 25 C-4.33 25.99 -4.66 26.98 -5 28 C-6.734375 27.9296875 -6.734375 27.9296875 -9 27 C-10.60161588 24.71448245 -11.93538542 22.56434038 -13.25 20.125 C-13.61351562 19.48691406 -13.97703125 18.84882813 -14.3515625 18.19140625 C-15.97129628 15.2746676 -17 13.38542353 -17 10 C-15.390625 9.28515625 -15.390625 9.28515625 -13 9 C-9.984375 10.43359375 -9.984375 10.43359375 -6.75 12.4375 C-5.67234375 13.09621094 -4.5946875 13.75492188 -3.484375 14.43359375 C-2.66453125 14.95050781 -1.8446875 15.46742188 -1 16 C-1.01160156 14.92878906 -1.02320313 13.85757813 -1.03515625 12.75390625 C-1.04453299 11.35677257 -1.05363331 9.95963701 -1.0625 8.5625 C-1.07506836 7.50192383 -1.07506836 7.50192383 -1.08789062 6.41992188 C-1.09653588 4.61306441 -1.05220011 2.80612397 -1 1 C-0.67 0.67 -0.34 0.34 0 0 Z " fill="#0D0D0D" transform="translate(216,126)"/>
<path d="M0 0 C10.89 0 21.78 0 33 0 C29 8 29 8 26 11 C23.27270508 11.34057617 23.27270508 11.34057617 20.01953125 11.29296875 C18.85615234 11.28330078 17.69277344 11.27363281 16.49414062 11.26367188 C15.27919922 11.23853516 14.06425781 11.21339844 12.8125 11.1875 C11.58595703 11.17396484 10.35941406 11.16042969 9.09570312 11.14648438 C6.06336336 11.11108741 3.03190004 11.0617076 0 11 C1.98 8.69 3.96 6.38 6 4 C5.195625 3.71125 4.39125 3.4225 3.5625 3.125 C1 2 1 2 0 0 Z " fill="#29A599" transform="translate(112,137)"/>
<path d="M0 0 C3.12577406 2.19032343 4.61037835 5.21643395 6.390625 8.5 C6.75414062 9.14195312 7.11765625 9.78390625 7.4921875 10.4453125 C10.140625 15.20453477 10.140625 15.20453477 10.140625 17.5 C8.490625 17.83 6.840625 18.16 5.140625 18.5 C4.150625 16.85 3.160625 15.2 2.140625 13.5 C-0.77454792 14.57401108 -2.63747676 15.27810176 -4.859375 17.5 C-4.364375 18.28375 -3.869375 19.0675 -3.359375 19.875 C-1.859375 22.5 -1.859375 22.5 -1.859375 24.5 C-3.509375 24.83 -5.159375 25.16 -6.859375 25.5 C-8.36752243 23.06721456 -9.86601847 20.62933973 -11.359375 18.1875 C-11.78863281 17.49720703 -12.21789062 16.80691406 -12.66015625 16.09570312 C-13.06621094 15.42861328 -13.47226563 14.76152344 -13.890625 14.07421875 C-14.26767578 13.46151123 -14.64472656 12.84880371 -15.03320312 12.2175293 C-15.859375 10.5 -15.859375 10.5 -15.859375 7.5 C-14.539375 7.17 -13.219375 6.84 -11.859375 6.5 C-8.859375 10.25 -8.859375 10.25 -8.859375 12.5 C-6.219375 11.18 -3.579375 9.86 -0.859375 8.5 C-1.354375 7.55125 -1.849375 6.6025 -2.359375 5.625 C-3.859375 2.5 -3.859375 2.5 -3.859375 0.5 C-1.859375 -0.5 -1.859375 -0.5 0 0 Z " fill="#0C0C0C" transform="translate(162.859375,158.5)"/>
<path d="M0 0 C0.81210938 0.33837891 0.81210938 0.33837891 1.640625 0.68359375 C1.640625 1.34359375 1.640625 2.00359375 1.640625 2.68359375 C-5.109375 6.68359375 -5.109375 6.68359375 -7.359375 6.68359375 C-7.029375 8.00359375 -6.699375 9.32359375 -6.359375 10.68359375 C-5.80507812 10.39484375 -5.25078125 10.10609375 -4.6796875 9.80859375 C-3.59300781 9.25171875 -3.59300781 9.25171875 -2.484375 8.68359375 C-1.76507813 8.31234375 -1.04578125 7.94109375 -0.3046875 7.55859375 C1.640625 6.68359375 1.640625 6.68359375 3.640625 6.68359375 C3.970625 8.00359375 4.300625 9.32359375 4.640625 10.68359375 C-1.109375 13.68359375 -1.109375 13.68359375 -3.359375 13.68359375 C-2.369375 15.00359375 -1.379375 16.32359375 -0.359375 17.68359375 C0.713125 16.98234375 1.785625 16.28109375 2.890625 15.55859375 C4.81640625 14.44140625 4.81640625 14.44140625 6.640625 13.68359375 C9.078125 14.43359375 9.078125 14.43359375 10.640625 15.68359375 C8.37824873 18.15625499 6.06609167 19.74745975 3.140625 21.37109375 C1.98046875 22.02658203 1.98046875 22.02658203 0.796875 22.6953125 C-1.359375 23.68359375 -1.359375 23.68359375 -4.359375 23.68359375 C-6.07817537 21.27014867 -7.5746714 18.92807895 -9.046875 16.37109375 C-9.67045898 15.3356543 -9.67045898 15.3356543 -10.30664062 14.27929688 C-13.359375 9.09115225 -13.359375 9.09115225 -13.359375 5.68359375 C-11.61814951 4.64786479 -9.86600905 3.63046855 -8.109375 2.62109375 C-6.64757812 1.76837891 -6.64757812 1.76837891 -5.15625 0.8984375 C-2.359375 -0.31640625 -2.359375 -0.31640625 0 0 Z " fill="#0E0E0E" transform="translate(179.359375,149.31640625)"/>
<path d="M0 0 C18.95149333 -1.47703485 18.95149333 -1.47703485 23.73046875 1.96875 C27 7.07083333 27 7.07083333 27 10 C18.42 10 9.84 10 1 10 C1.33 7.69 1.66 5.38 2 3 C1.34 2.01 0.68 1.02 0 0 Z " fill="#6F0B49" transform="translate(115,35)"/>
<path d="M0 0 C4.11838713 -0.69882135 6.83917582 -0.88241289 10.875 -0.5625 C12.33679688 -0.5015918 12.33679688 -0.5015918 13.828125 -0.43945312 C16.22090619 -0.33388925 18.6111084 -0.17246009 21 0 C20.67 2.97 20.34 5.94 20 9 C11.42 9 2.84 9 -6 9 C-4.02 6.03 -2.04 3.06 0 0 Z " fill="#6E0947" transform="translate(95,205)"/>
<path d="M0 0 C2 3 2 3 3 5 C7.29 5 11.58 5 16 5 C15 9 15 9 13.1875 10.25 C11 11 11 11 7 11 C7 11.99 7 12.98 7 14 C5.75823305 14.70226141 4.50614401 15.38629109 3.25 16.0625 C2.55390625 16.44535156 1.8578125 16.82820313 1.140625 17.22265625 C-1.36140628 18.1312406 -2.5332355 17.88336837 -5 17 C-5 16.01 -5 15.02 -5 14 C-0.77777778 11 -0.77777778 11 2 11 C1.67 10.01 1.34 9.02 1 8 C0.2575 8.309375 -0.485 8.61875 -1.25 8.9375 C-3.50692176 9.8094925 -5.6450153 10.47667007 -8 11 C-8.33 9.68 -8.66 8.36 -9 7 C-7.2421875 6.05598958 -5.484375 5.11197917 -3.7265625 4.16796875 C-1.69497635 2.95236507 -1.69497635 2.95236507 0 0 Z " fill="#D9D9D9" transform="translate(237,117)"/>
<path d="M0 0 C4.09189762 1.36396587 4.61547327 3.34848983 6.6875 7.0625 C7.31011719 8.16722656 7.93273437 9.27195313 8.57421875 10.41015625 C9.27998047 11.69212891 9.27998047 11.69212891 10 13 C9.34 13.66 8.68 14.32 8 15 C7.01 14.67 6.02 14.34 5 14 C2.89765056 14.74851382 2.89765056 14.74851382 0.8125 15.9375 C0.09707031 16.31777344 -0.61835938 16.69804687 -1.35546875 17.08984375 C-1.89816406 17.39019531 -2.44085938 17.69054687 -3 18 C-3.66 16.35 -4.32 14.7 -5 13 C0.75 10 0.75 10 3 10 C2.67 8.68 2.34 7.36 2 6 C0.3603125 6.99 0.3603125 6.99 -1.3125 8 C-3.93707538 9.58464929 -4.8256378 10 -8 10 C-8.33 8.68 -8.66 7.36 -9 6 C-2.25 2 -2.25 2 0 2 C0 1.34 0 0.68 0 0 Z " fill="#D7D7D7" transform="translate(181,150)"/>
<path d="M0 0 C2.87602455 -0.10852923 5.74790832 -0.1875515 8.625 -0.25 C9.43324219 -0.28351563 10.24148437 -0.31703125 11.07421875 -0.3515625 C16.67714671 -0.44266702 19.73531104 0.27357276 24 4 C24 4.66 24 5.32 24 6 C22.35666496 7.03789581 20.68756133 8.03567924 19 9 C18.34 9.66 17.68 10.32 17 11 C14.16317601 9.36012756 11.33115748 7.71213309 8.5 6.0625 C7.68917969 5.59392578 6.87835938 5.12535156 6.04296875 4.64257812 C5.27597656 4.19462891 4.50898437 3.74667969 3.71875 3.28515625 C3.00654297 2.87144775 2.29433594 2.45773926 1.56054688 2.03149414 C1.04556641 1.69110107 0.53058594 1.35070801 0 1 C0 0.67 0 0.34 0 0 Z " fill="#F3B921" transform="translate(100,256)"/>
<path d="M0 0 C1.921875 1.640625 1.921875 1.640625 6.921875 8.640625 C-0.008125 8.640625 -6.938125 8.640625 -14.078125 8.640625 C-14.078125 7.980625 -14.078125 7.320625 -14.078125 6.640625 C-11.59375 4.84375 -11.59375 4.84375 -8.328125 2.890625 C-7.26078125 2.23578125 -6.1934375 1.5809375 -5.09375 0.90625 C-2.078125 -0.359375 -2.078125 -0.359375 0 0 Z " fill="#E7E6E7" transform="translate(128.078125,26.359375)"/>
<path d="M0 0 C0.763125 0.20625 1.52625 0.4125 2.3125 0.625 C2.6425 1.945 2.9725 3.265 3.3125 4.625 C-1.4375 8.625 -1.4375 8.625 -3.6875 8.625 C-5.1481285 5.97761084 -5.6875 4.73051666 -5.6875 1.625 C-2.6875 -0.375 -2.6875 -0.375 0 0 Z " fill="#CFCFCF" transform="translate(193.6875,145.375)"/>
<path d="M0 0 C3.38351811 1.12783937 3.52883475 1.45088872 5.0625 4.4375 C6.26019398 6.74149765 7.13152817 8.13152817 9 10 C4.82412255 11.39195915 2.86525224 9.82323219 -1 8 C-0.67 5.36 -0.34 2.72 0 0 Z " fill="#CECECE" transform="translate(201,145)"/>
</svg>
