<?xml version="1.0" encoding="UTF-8" standalone="no"?>
<!DOCTYPE svg PUBLIC "-//W3C//DTD SVG 1.1//EN" "http://www.w3.org/Graphics/SVG/1.1/DTD/svg11.dtd">
<svg width="100%" height="100%" viewBox="0 0 642 742" version="1.1" xmlns="http://www.w3.org/2000/svg" xmlns:xlink="http://www.w3.org/1999/xlink" xml:space="preserve" xmlns:serif="http://www.serif.com/" style="fill-rule:evenodd;clip-rule:evenodd;stroke-linecap:round;stroke-miterlimit:2;">
    <g transform="matrix(1,0,0,1,-2133.98,-161969)">
        <g transform="matrix(0.71216,0,0,0.82299,3190.09,30933.5)">
            <rect id="NEST" x="-1482.96" y="159219" width="900.67" height="900.67" style="fill:none;"/>
            <clipPath id="_clip1">
                <rect id="NEST1" serif:id="NEST" x="-1482.96" y="159219" width="900.67" height="900.67"/>
            </clipPath>
            <g clip-path="url(#_clip1)">
                <g transform="matrix(0.792704,0,0,0.685953,-2163.93,158671)">
                    <path d="M1427.14,799.208L1995.7,1127.46L1995.7,1783.97L1427.14,2112.23L858.587,1783.97L858.587,1127.46L1427.14,799.208Z" style="fill:rgb(228,239,255);"/>
                    <clipPath id="_clip2">
                        <path d="M1427.14,799.208L1995.7,1127.46L1995.7,1783.97L1427.14,2112.23L858.587,1783.97L858.587,1127.46L1427.14,799.208Z"/>
                    </clipPath>
                    <g clip-path="url(#_clip2)">
                        <g transform="matrix(1.82659,0,0,1.82659,-36189.7,-260357)">
                            <path d="M20282.2,143334L20234.7,143334C20234.3,143334 20234,143334 20234,143334C20234,143333 20234.3,143333 20234.7,143333L20282.2,143333L20282.2,143257L20234.9,143257C20234.5,143257 20234.3,143256 20234.3,143256C20234.3,143256 20234.5,143255 20234.9,143255L20282.2,143255L20282.2,143179L20234.9,143179C20234.5,143179 20234.3,143178 20234.3,143178C20234.3,143178 20234.5,143177 20234.9,143177L20282.2,143177L20282.2,143101L20234.9,143101C20234.5,143101 20234.3,143101 20234.3,143100C20234.3,143100 20234.5,143100 20234.9,143100L20282.2,143100L20282.2,143023L20234.9,143023C20234.5,143023 20234.3,143023 20234.3,143023C20234.3,143022 20234.5,143022 20234.9,143022L20282.2,143022L20282.2,142975C20282.2,142975 20282.5,142974 20282.8,142974C20283.2,142974 20283.4,142975 20283.4,142975L20283.4,143022L20360,143022L20360,142975C20360,142975 20360.3,142974 20360.6,142974C20361,142974 20361.3,142975 20361.3,142975L20361.3,143022L20437.8,143022L20437.8,142975C20437.8,142975 20438.1,142974 20438.5,142974C20438.8,142974 20439.1,142975 20439.1,142975L20439.1,143022L20515.7,143022L20515.7,142975C20515.7,142975 20516,142974 20516.3,142974C20516.7,142974 20516.9,142975 20516.9,142975L20516.9,143022L20593.5,143022L20593.5,142975C20593.5,142975 20593.8,142974 20594.1,142974C20594.5,142974 20594.8,142975 20594.8,142975L20594.8,143022L20671.3,143022L20671.3,142975C20671.3,142975 20671.6,142974 20672,142974C20672.3,142974 20672.6,142975 20672.6,142975L20672.6,143022L20749.2,143022L20749.2,142975C20749.2,142975 20749.5,142974 20749.8,142974C20750.2,142974 20750.4,142975 20750.4,142975L20750.4,143022L20827,143022L20827,142975C20827,142975 20827.3,142974 20827.6,142974C20828,142974 20828.3,142975 20828.3,142975L20828.3,143022L20904.8,143022L20904.8,142975C20904.8,142975 20905.1,142974 20905.5,142974C20905.8,142974 20906.1,142975 20906.1,142975L20906.1,143022L20953.9,143022C20954.2,143022 20954.5,143022 20954.5,143023C20954.5,143023 20954.2,143023 20953.9,143023L20906.1,143023L20906.1,143100L20953.9,143100C20954.2,143100 20954.5,143100 20954.5,143100C20954.5,143101 20954.2,143101 20953.9,143101L20906.1,143101L20906.1,143177L20953.9,143177C20954.2,143177 20954.5,143178 20954.5,143178C20954.5,143178 20954.2,143179 20953.9,143179L20906.1,143179L20906.1,143255L20953.9,143255C20954.2,143255 20954.5,143256 20954.5,143256C20954.5,143256 20954.2,143257 20953.9,143257L20906.1,143257L20906.1,143333L20953.6,143333C20954,143333 20954.3,143333 20954.3,143334C20954.3,143334 20954,143334 20953.6,143334L20906.1,143334L20906.1,143411L20953.9,143411C20954.2,143411 20954.5,143411 20954.5,143411C20954.5,143412 20954.2,143412 20953.9,143412L20906.1,143412L20906.1,143488L20953.9,143488C20954.2,143488 20954.5,143489 20954.5,143489C20954.5,143489 20954.2,143490 20953.9,143490L20906.1,143490L20906.1,143566L20953.9,143566C20954.2,143566 20954.5,143567 20954.5,143567C20954.5,143567 20954.2,143568 20953.9,143568L20906.1,143568L20906.1,143644L20953.9,143644C20954.2,143644 20954.5,143645 20954.5,143645C20954.5,143645 20954.2,143645 20953.9,143645L20906.1,143645L20906.1,143694C20906.1,143694 20905.8,143695 20905.5,143695C20905.1,143695 20904.8,143694 20904.8,143694L20904.8,143645L20828.3,143645L20828.3,143694C20828.3,143694 20828,143695 20827.6,143695C20827.3,143695 20827,143694 20827,143694L20827,143645L20750.4,143645L20750.4,143694C20750.4,143694 20750.2,143695 20749.8,143695C20749.5,143695 20749.2,143694 20749.2,143694L20749.2,143645L20672.6,143645L20672.6,143694C20672.6,143694 20672.3,143695 20672,143695C20671.6,143695 20671.3,143694 20671.3,143694L20671.3,143645L20594.8,143645L20594.8,143694C20594.8,143694 20594.5,143695 20594.1,143695C20593.8,143695 20593.5,143694 20593.5,143694L20593.5,143645L20516.9,143645L20516.9,143694C20516.9,143694 20516.7,143695 20516.3,143695C20516,143695 20515.7,143694 20515.7,143694L20515.7,143645L20439.1,143645L20439.1,143694C20439.1,143694 20438.8,143695 20438.5,143695C20438.1,143695 20437.8,143694 20437.8,143694L20437.8,143645L20361.3,143645L20361.3,143694C20361.3,143694 20361,143695 20360.6,143695C20360.3,143695 20360,143694 20360,143694L20360,143645L20283.4,143645L20283.4,143694C20283.4,143694 20283.2,143695 20282.8,143695C20282.5,143695 20282.2,143694 20282.2,143694L20282.2,143645L20234.9,143645C20234.5,143645 20234.3,143645 20234.3,143645C20234.3,143645 20234.5,143644 20234.9,143644L20282.2,143644L20282.2,143568L20234.9,143568C20234.5,143568 20234.3,143567 20234.3,143567C20234.3,143567 20234.5,143566 20234.9,143566L20282.2,143566L20282.2,143490L20234.9,143490C20234.5,143490 20234.3,143489 20234.3,143489C20234.3,143489 20234.5,143488 20234.9,143488L20282.2,143488L20282.2,143412L20234.9,143412C20234.5,143412 20234.3,143412 20234.3,143411C20234.3,143411 20234.5,143411 20234.9,143411L20282.2,143411L20282.2,143334ZM20749.2,143411L20749.2,143334L20672.6,143334L20672.6,143411L20749.2,143411ZM20904.8,143644L20904.8,143568L20828.3,143568L20828.3,143644L20904.8,143644ZM20516.9,143411L20593.5,143411L20593.5,143334L20516.9,143334L20516.9,143411ZM20672.6,143644L20749.2,143644L20749.2,143568L20672.6,143568L20672.6,143644ZM20749.2,143488L20749.2,143412L20672.6,143412L20672.6,143488L20749.2,143488ZM20827,143488L20827,143412L20750.4,143412L20750.4,143488L20827,143488ZM20283.4,143644L20360,143644L20360,143568L20283.4,143568L20283.4,143644ZM20749.2,143101L20672.6,143101L20672.6,143177L20749.2,143177L20749.2,143101ZM20904.8,143566L20904.8,143490L20828.3,143490L20828.3,143566L20904.8,143566ZM20750.4,143644L20827,143644L20827,143568L20750.4,143568L20750.4,143644ZM20283.4,143412L20283.4,143488L20360,143488L20360,143412L20283.4,143412ZM20283.4,143334L20283.4,143411L20360,143411L20360,143334L20283.4,143334ZM20749.2,143179L20672.6,143179L20672.6,143255L20749.2,143255L20749.2,143179ZM20904.8,143023L20828.3,143023L20828.3,143100L20904.8,143100L20904.8,143023ZM20671.3,143411L20671.3,143334L20594.8,143334L20594.8,143411L20671.3,143411ZM20439.1,143566L20515.7,143566L20515.7,143490L20439.1,143490L20439.1,143566ZM20516.9,143488L20593.5,143488L20593.5,143412L20516.9,143412L20516.9,143488ZM20671.3,143101L20594.8,143101L20594.8,143177L20671.3,143177L20671.3,143101ZM20749.2,143333L20749.2,143257L20672.6,143257L20672.6,143333L20749.2,143333ZM20361.3,143566L20437.8,143566L20437.8,143490L20361.3,143490L20361.3,143566ZM20904.8,143177L20904.8,143101L20828.3,143101L20828.3,143177L20904.8,143177ZM20827,143023L20750.4,143023L20750.4,143100L20827,143100L20827,143023ZM20594.8,143488L20671.3,143488L20671.3,143412L20594.8,143412L20594.8,143488ZM20672.6,143566L20749.2,143566L20749.2,143490L20672.6,143490L20672.6,143566ZM20361.3,143334L20361.3,143411L20437.8,143411L20437.8,143334L20361.3,143334ZM20594.8,143644L20671.3,143644L20671.3,143568L20594.8,143568L20594.8,143644ZM20516.9,143257L20516.9,143333L20593.5,143333L20593.5,143257L20516.9,143257ZM20671.3,143257L20594.8,143257L20594.8,143333L20671.3,143333L20671.3,143257ZM20516.9,143566L20593.5,143566L20593.5,143490L20516.9,143490L20516.9,143566ZM20904.8,143255L20904.8,143179L20828.3,143179L20828.3,143255L20904.8,143255ZM20283.4,143023L20283.4,143100L20360,143100L20360,143023L20283.4,143023ZM20439.1,143644L20515.7,143644L20515.7,143568L20439.1,143568L20439.1,143644ZM20283.4,143490L20283.4,143566L20360,143566L20360,143490L20283.4,143490ZM20827,143566L20827,143490L20750.4,143490L20750.4,143566L20827,143566ZM20593.5,143179L20516.9,143179L20516.9,143255L20593.5,143255L20593.5,143179ZM20671.3,143179L20594.8,143179L20594.8,143255L20671.3,143255L20671.3,143179ZM20361.3,143412L20361.3,143488L20437.8,143488L20437.8,143412L20361.3,143412ZM20361.3,143644L20437.8,143644L20437.8,143568L20361.3,143568L20361.3,143644ZM20515.7,143101L20439.1,143101L20439.1,143177L20515.7,143177L20515.7,143101ZM20437.8,143023L20361.3,143023L20361.3,143100L20437.8,143100L20437.8,143023ZM20439.1,143488L20515.7,143488L20515.7,143412L20439.1,143412L20439.1,143488ZM20439.1,143334L20439.1,143411L20515.7,143411L20515.7,143334L20439.1,143334ZM20749.2,143023L20672.6,143023L20672.6,143100L20749.2,143100L20749.2,143023ZM20515.7,143023L20439.1,143023L20439.1,143100L20515.7,143100L20515.7,143023ZM20593.5,143023L20516.9,143023L20516.9,143100L20593.5,143100L20593.5,143023ZM20593.5,143101L20516.9,143101L20516.9,143177L20593.5,143177L20593.5,143101ZM20671.3,143023L20594.8,143023L20594.8,143100L20671.3,143100L20671.3,143023ZM20594.8,143566L20671.3,143566L20671.3,143490L20594.8,143490L20594.8,143566ZM20516.9,143644L20593.5,143644L20593.5,143568L20516.9,143568L20516.9,143644ZM20827,143101L20750.4,143101L20750.4,143177L20827,143177L20827,143101ZM20904.8,143333L20904.8,143257L20828.3,143257L20828.3,143333L20904.8,143333ZM20904.8,143411L20904.8,143334L20828.3,143334L20828.3,143411L20904.8,143411ZM20827,143255L20827,143179L20750.4,143179L20750.4,143255L20827,143255ZM20361.3,143101L20361.3,143177L20437.8,143177L20437.8,143101L20361.3,143101ZM20361.3,143257L20361.3,143333L20437.8,143333L20437.8,143257L20361.3,143257ZM20283.4,143257L20283.4,143333L20360,143333L20360,143257L20283.4,143257ZM20283.4,143179L20283.4,143255L20360,143255L20360,143179L20283.4,143179ZM20361.3,143179L20361.3,143255L20437.8,143255L20437.8,143179L20361.3,143179ZM20283.4,143101L20283.4,143177L20360,143177L20360,143101L20283.4,143101ZM20904.8,143488L20904.8,143412L20828.3,143412L20828.3,143488L20904.8,143488ZM20439.1,143257L20439.1,143333L20515.7,143333L20515.7,143257L20439.1,143257ZM20439.1,143179L20439.1,143255L20515.7,143255L20515.7,143179L20439.1,143179ZM20827,143333L20827,143257L20750.4,143257L20750.4,143333L20827,143333ZM20827,143411L20827,143334L20750.4,143334L20750.4,143411L20827,143411Z" style="fill:rgb(128,186,255);fill-opacity:0.4;"/>
                        </g>
                    </g>
                    <path d="M1427.14,799.208L1995.7,1127.46L1995.7,1783.97L1427.14,2112.23L858.587,1783.97L858.587,1127.46L1427.14,799.208ZM1427.14,811.587L869.309,1133.65L869.309,1777.78L1427.14,2099.85L1984.98,1777.78L1984.98,1133.65L1427.14,811.587Z" style="fill:rgb(93,142,255);"/>
                </g>
                <g transform="matrix(0.748923,0,0,0.526524,-1486.53,73994.3)">
                    <rect x="-0.539" y="162713" width="246.253" height="11.889" style="fill:rgb(87,136,249);"/>
                </g>
                <g transform="matrix(0.866133,0,0,0.526524,-749.151,73994.3)">
                    <rect x="1.23" y="162713" width="186.444" height="11.889" style="fill:rgb(87,136,249);"/>
                </g>
                <g>
                    <g transform="matrix(0.411286,0,0,0.3559,-37632.2,144566)">
                        <g transform="matrix(2.47204,0,0,2.47204,-155367,-50625.5)">
                            <path d="M98780.6,37343.1L98805,37329L98806.2,37329.7C98821.5,37343.6 98835.6,37358.8 98848.3,37375C98855.7,37384.3 98862.6,37393.9 98869,37403.9C98895.2,37444.4 98913.7,37490.2 98922.7,37539.3C98925.3,37553 98927,37567 98928,37581.2C98918.5,37571.5 98908.3,37562.3 98897.7,37553.7C98877.2,37537.1 98854.8,37522.8 98830.8,37511.2C98819.9,37505.9 98808.6,37501.1 98797.1,37497C98760.1,37483.6 98720.2,37476.3 98678.7,37476.3C98651.9,37476.3 98625.8,37479.4 98600.8,37485.1C98589.9,37487.6 98579.3,37490.6 98568.8,37494L98568.8,37465.6C98575.2,37463.6 98581.7,37461.8 98588.3,37460.2C98628.8,37426.8 98676.4,37401.7 98728.4,37387.6C98725.5,37384.4 98722.6,37381.4 98719.6,37378.3L98743.8,37364.4C98748.8,37369.7 98753.7,37375.1 98758.5,37380.7C98776.2,37377.4 98794.3,37375.4 98812.7,37374.7C98802.7,37363.5 98791.9,37352.9 98780.6,37343.1ZM98889,37513.6C98877.6,37472.8 98859,37434.9 98834.5,37401.5C98832.1,37401.5 98829.7,37401.5 98827.3,37401.5C98810.4,37401.5 98793.8,37402.7 98777.5,37405C98793.3,37427 98806.8,37450.7 98817.6,37475.8C98842.9,37485.9 98866.8,37498.6 98889,37513.6ZM98747.9,37410.6C98712.6,37418.8 98679.4,37432.4 98649.1,37450.4C98658.9,37449.6 98668.7,37449.3 98678.7,37449.3C98714.5,37449.3 98749.1,37454.3 98781.9,37463.6C98772.2,37444.9 98760.8,37427.1 98747.9,37410.6Z" style="fill:url(#_Linear3);"/>
                            <clipPath id="_clip4">
                                <path d="M98780.6,37343.1L98805,37329L98806.2,37329.7C98821.5,37343.6 98835.6,37358.8 98848.3,37375C98855.7,37384.3 98862.6,37393.9 98869,37403.9C98895.2,37444.4 98913.7,37490.2 98922.7,37539.3C98925.3,37553 98927,37567 98928,37581.2C98918.5,37571.5 98908.3,37562.3 98897.7,37553.7C98877.2,37537.1 98854.8,37522.8 98830.8,37511.2C98819.9,37505.9 98808.6,37501.1 98797.1,37497C98760.1,37483.6 98720.2,37476.3 98678.7,37476.3C98651.9,37476.3 98625.8,37479.4 98600.8,37485.1C98589.9,37487.6 98579.3,37490.6 98568.8,37494L98568.8,37465.6C98575.2,37463.6 98581.7,37461.8 98588.3,37460.2C98628.8,37426.8 98676.4,37401.7 98728.4,37387.6C98725.5,37384.4 98722.6,37381.4 98719.6,37378.3L98743.8,37364.4C98748.8,37369.7 98753.7,37375.1 98758.5,37380.7C98776.2,37377.4 98794.3,37375.4 98812.7,37374.7C98802.7,37363.5 98791.9,37352.9 98780.6,37343.1ZM98889,37513.6C98877.6,37472.8 98859,37434.9 98834.5,37401.5C98832.1,37401.5 98829.7,37401.5 98827.3,37401.5C98810.4,37401.5 98793.8,37402.7 98777.5,37405C98793.3,37427 98806.8,37450.7 98817.6,37475.8C98842.9,37485.9 98866.8,37498.6 98889,37513.6ZM98747.9,37410.6C98712.6,37418.8 98679.4,37432.4 98649.1,37450.4C98658.9,37449.6 98668.7,37449.3 98678.7,37449.3C98714.5,37449.3 98749.1,37454.3 98781.9,37463.6C98772.2,37444.9 98760.8,37427.1 98747.9,37410.6Z"/>
                            </clipPath>
                            <g clip-path="url(#_clip4)">
                                <g transform="matrix(0.404524,0,0,0.404524,62855.3,20485.1)">
                                    <path d="M89107.5,42222.1C89061.1,41993 88980.9,41827.2 88808.3,41672.1C88737.1,41608.1 88756.1,41668.6 88770.2,41678.1C89034.3,41856.8 89003.8,42154.6 89005.2,42164.5C89006.6,42174.3 89107.5,42222.1 89107.5,42222.1Z" style="fill-opacity:0.3;"/>
                                </g>
                                <g transform="matrix(0.404501,-0.00431838,0.00431838,0.404501,62595.4,20885.7)">
                                    <path d="M89107.5,42222.1C89061.1,41993 88980.9,41827.2 88808.3,41672.1C88737.1,41608.1 88756.1,41668.6 88770.2,41678.1C89034.3,41856.8 89003.8,42154.6 89005.2,42164.5C89006.6,42174.3 89107.5,42222.1 89107.5,42222.1Z" style="fill-opacity:0.3;"/>
                                </g>
                                <g transform="matrix(0.130225,-0.38299,0.38299,0.130225,70993.2,66067)">
                                    <path d="M89012.2,41994.4C88934.2,41738.3 88831.9,41678.6 88808.3,41672.1C88779.9,41664.2 88857.1,41724.1 88909.4,41813.7C88946.8,41877.9 88974.2,41932.7 88990.6,41969.1C88994.7,41978.2 89012.2,41994.4 89012.2,41994.4Z" style="fill-opacity:0.3;"/>
                                </g>
                            </g>
                        </g>
                        <g transform="matrix(-1.23602,2.14085,-2.14085,-1.23602,291721,-122721)">
                            <path d="M98780.6,37343.1L98805,37329L98806.2,37329.7C98821.5,37343.6 98835.6,37358.8 98848.3,37375C98855.7,37384.3 98862.6,37393.9 98869,37403.9C98895.2,37444.4 98913.7,37490.2 98922.7,37539.3C98925.3,37553 98927,37567 98928,37581.2C98918.5,37571.5 98908.3,37562.3 98897.7,37553.7C98877.2,37537.1 98854.8,37522.8 98830.8,37511.2C98819.9,37505.9 98808.6,37501.1 98797.1,37497C98760.1,37483.6 98720.2,37476.3 98678.7,37476.3C98651.9,37476.3 98625.8,37479.4 98600.8,37485.1C98589.9,37487.6 98579.3,37490.6 98568.8,37494L98568.8,37465.6C98575.2,37463.6 98581.7,37461.8 98588.3,37460.2C98628.8,37426.8 98676.4,37401.7 98728.4,37387.6C98725.5,37384.4 98722.6,37381.4 98719.6,37378.3L98743.8,37364.4C98748.8,37369.7 98753.7,37375.1 98758.5,37380.7C98776.2,37377.4 98794.3,37375.4 98812.7,37374.7C98802.7,37363.5 98791.9,37352.9 98780.6,37343.1ZM98889,37513.6C98877.6,37472.8 98859,37434.9 98834.5,37401.5C98832.1,37401.5 98829.7,37401.5 98827.3,37401.5C98810.4,37401.5 98793.8,37402.7 98777.5,37405C98793.3,37427 98806.8,37450.7 98817.6,37475.8C98842.9,37485.9 98866.8,37498.6 98889,37513.6ZM98747.9,37410.6C98712.6,37418.8 98679.4,37432.4 98649.1,37450.4C98658.9,37449.6 98668.7,37449.3 98678.7,37449.3C98714.5,37449.3 98749.1,37454.3 98781.9,37463.6C98772.2,37444.9 98760.8,37427.1 98747.9,37410.6Z" style="fill:url(#_Linear5);"/>
                            <clipPath id="_clip6">
                                <path d="M98780.6,37343.1L98805,37329L98806.2,37329.7C98821.5,37343.6 98835.6,37358.8 98848.3,37375C98855.7,37384.3 98862.6,37393.9 98869,37403.9C98895.2,37444.4 98913.7,37490.2 98922.7,37539.3C98925.3,37553 98927,37567 98928,37581.2C98918.5,37571.5 98908.3,37562.3 98897.7,37553.7C98877.2,37537.1 98854.8,37522.8 98830.8,37511.2C98819.9,37505.9 98808.6,37501.1 98797.1,37497C98760.1,37483.6 98720.2,37476.3 98678.7,37476.3C98651.9,37476.3 98625.8,37479.4 98600.8,37485.1C98589.9,37487.6 98579.3,37490.6 98568.8,37494L98568.8,37465.6C98575.2,37463.6 98581.7,37461.8 98588.3,37460.2C98628.8,37426.8 98676.4,37401.7 98728.4,37387.6C98725.5,37384.4 98722.6,37381.4 98719.6,37378.3L98743.8,37364.4C98748.8,37369.7 98753.7,37375.1 98758.5,37380.7C98776.2,37377.4 98794.3,37375.4 98812.7,37374.7C98802.7,37363.5 98791.9,37352.9 98780.6,37343.1ZM98889,37513.6C98877.6,37472.8 98859,37434.9 98834.5,37401.5C98832.1,37401.5 98829.7,37401.5 98827.3,37401.5C98810.4,37401.5 98793.8,37402.7 98777.5,37405C98793.3,37427 98806.8,37450.7 98817.6,37475.8C98842.9,37485.9 98866.8,37498.6 98889,37513.6ZM98747.9,37410.6C98712.6,37418.8 98679.4,37432.4 98649.1,37450.4C98658.9,37449.6 98668.7,37449.3 98678.7,37449.3C98714.5,37449.3 98749.1,37454.3 98781.9,37463.6C98772.2,37444.9 98760.8,37427.1 98747.9,37410.6Z"/>
                            </clipPath>
                            <g clip-path="url(#_clip6)">
                                <g transform="matrix(0.404524,0,0,0.404524,62855.3,20485.1)">
                                    <path d="M89107.5,42222.1C89061.1,41993 88980.9,41827.2 88808.3,41672.1C88737.1,41608.1 88756.1,41668.6 88770.2,41678.1C89034.3,41856.8 89003.8,42154.6 89005.2,42164.5C89006.6,42174.3 89107.5,42222.1 89107.5,42222.1Z" style="fill-opacity:0.3;"/>
                                </g>
                                <g transform="matrix(0.404501,-0.00431838,0.00431838,0.404501,62594.9,20885.5)">
                                    <path d="M89107.5,42222.1C89061.1,41993 88980.9,41827.2 88808.3,41672.1C88737.1,41608.1 88756.1,41668.6 88770.2,41678.1C89034.3,41856.8 89003.8,42154.6 89005.2,42164.5C89006.6,42174.3 89107.5,42222.1 89107.5,42222.1Z" style="fill-opacity:0.3;"/>
                                </g>
                                <g transform="matrix(0.130225,-0.38299,0.38299,0.130225,70993.2,66067)">
                                    <path d="M89012.2,41994.4C88934.2,41738.3 88831.9,41678.6 88808.3,41672.1C88779.9,41664.2 88857.1,41724.1 88909.4,41813.7C88946.8,41877.9 88974.2,41932.7 88990.6,41969.1C88994.7,41978.2 89012.2,41994.4 89012.2,41994.4Z" style="fill-opacity:0.3;"/>
                                </g>
                            </g>
                        </g>
                        <g transform="matrix(-1.23602,-2.14085,2.14085,-1.23602,130615,300516)">
                            <path d="M98780.6,37343.1L98805,37329L98806.2,37329.7C98821.5,37343.6 98835.6,37358.8 98848.3,37375C98855.7,37384.3 98862.6,37393.9 98869,37403.9C98895.2,37444.4 98913.7,37490.2 98922.7,37539.3C98925.3,37553 98927,37567 98928,37581.2C98918.5,37571.5 98908.3,37562.3 98897.7,37553.7C98877.2,37537.1 98854.8,37522.8 98830.8,37511.2C98819.9,37505.9 98808.6,37501.1 98797.1,37497C98760.1,37483.6 98720.2,37476.3 98678.7,37476.3C98651.9,37476.3 98625.8,37479.4 98600.8,37485.1C98589.9,37487.6 98579.3,37490.6 98568.8,37494L98568.8,37465.6C98575.2,37463.6 98581.7,37461.8 98588.3,37460.2C98628.8,37426.8 98676.4,37401.7 98728.4,37387.6C98725.5,37384.4 98722.6,37381.4 98719.6,37378.3L98743.8,37364.4C98748.8,37369.7 98753.7,37375.1 98758.5,37380.7C98776.2,37377.4 98794.3,37375.4 98812.7,37374.7C98802.7,37363.5 98791.9,37352.9 98780.6,37343.1ZM98889,37513.6C98877.6,37472.8 98859,37434.9 98834.5,37401.5C98832.1,37401.5 98829.7,37401.5 98827.3,37401.5C98810.4,37401.5 98793.8,37402.7 98777.5,37405C98793.3,37427 98806.8,37450.7 98817.6,37475.8C98842.9,37485.9 98866.8,37498.6 98889,37513.6ZM98747.9,37410.6C98712.6,37418.8 98679.4,37432.4 98649.1,37450.4C98658.9,37449.6 98668.7,37449.3 98678.7,37449.3C98714.5,37449.3 98749.1,37454.3 98781.9,37463.6C98772.2,37444.9 98760.8,37427.1 98747.9,37410.6Z" style="fill:url(#_Linear7);"/>
                            <clipPath id="_clip8">
                                <path d="M98780.6,37343.1L98805,37329L98806.2,37329.7C98821.5,37343.6 98835.6,37358.8 98848.3,37375C98855.7,37384.3 98862.6,37393.9 98869,37403.9C98895.2,37444.4 98913.7,37490.2 98922.7,37539.3C98925.3,37553 98927,37567 98928,37581.2C98918.5,37571.5 98908.3,37562.3 98897.7,37553.7C98877.2,37537.1 98854.8,37522.8 98830.8,37511.2C98819.9,37505.9 98808.6,37501.1 98797.1,37497C98760.1,37483.6 98720.2,37476.3 98678.7,37476.3C98651.9,37476.3 98625.8,37479.4 98600.8,37485.1C98589.9,37487.6 98579.3,37490.6 98568.8,37494L98568.8,37465.6C98575.2,37463.6 98581.7,37461.8 98588.3,37460.2C98628.8,37426.8 98676.4,37401.7 98728.4,37387.6C98725.5,37384.4 98722.6,37381.4 98719.6,37378.3L98743.8,37364.4C98748.8,37369.7 98753.7,37375.1 98758.5,37380.7C98776.2,37377.4 98794.3,37375.4 98812.7,37374.7C98802.7,37363.5 98791.9,37352.9 98780.6,37343.1ZM98889,37513.6C98877.6,37472.8 98859,37434.9 98834.5,37401.5C98832.1,37401.5 98829.7,37401.5 98827.3,37401.5C98810.4,37401.5 98793.8,37402.7 98777.5,37405C98793.3,37427 98806.8,37450.7 98817.6,37475.8C98842.9,37485.9 98866.8,37498.6 98889,37513.6ZM98747.9,37410.6C98712.6,37418.8 98679.4,37432.4 98649.1,37450.4C98658.9,37449.6 98668.7,37449.3 98678.7,37449.3C98714.5,37449.3 98749.1,37454.3 98781.9,37463.6C98772.2,37444.9 98760.8,37427.1 98747.9,37410.6Z"/>
                            </clipPath>
                            <g clip-path="url(#_clip8)">
                                <g transform="matrix(0.404524,0,0,0.404524,62855.3,20485.1)">
                                    <path d="M89107.5,42222.1C89061.1,41993 88980.9,41827.2 88808.3,41672.1C88737.1,41608.1 88756.1,41668.6 88770.2,41678.1C89034.3,41856.8 89003.8,42154.6 89005.2,42164.5C89006.6,42174.3 89107.5,42222.1 89107.5,42222.1Z" style="fill-opacity:0.3;"/>
                                </g>
                                <g transform="matrix(0.404501,-0.00431838,0.00431838,0.404501,62595.4,20885.7)">
                                    <path d="M89107.5,42222.1C89061.1,41993 88980.9,41827.2 88808.3,41672.1C88737.1,41608.1 88756.1,41668.6 88770.2,41678.1C89034.3,41856.8 89003.8,42154.6 89005.2,42164.5C89006.6,42174.3 89107.5,42222.1 89107.5,42222.1Z" style="fill-opacity:0.3;"/>
                                </g>
                                <g transform="matrix(0.130225,-0.38299,0.38299,0.130225,70993.2,66067)">
                                    <path d="M89012.2,41994.4C88934.2,41738.3 88831.9,41678.6 88808.3,41672.1C88779.9,41664.2 88857.1,41724.1 88909.4,41813.7C88946.8,41877.9 88974.2,41932.7 88990.6,41969.1C88994.7,41978.2 89012.2,41994.4 89012.2,41994.4Z" style="fill-opacity:0.3;"/>
                                </g>
                            </g>
                        </g>
                        <g transform="matrix(1.23602,2.14085,-2.14085,1.23602,47362.9,-215737)">
                            <path d="M98780.6,37343.1L98805,37329L98806.2,37329.7C98821.5,37343.6 98835.6,37358.8 98848.3,37375C98855.7,37384.3 98862.6,37393.9 98869,37403.9C98895.2,37444.4 98913.7,37490.2 98922.7,37539.3C98925.3,37553 98927,37567 98928,37581.2C98918.5,37571.5 98908.3,37562.3 98897.7,37553.7C98877.2,37537.1 98854.8,37522.8 98830.8,37511.2C98819.9,37505.9 98808.6,37501.1 98797.1,37497C98760.1,37483.6 98720.2,37476.3 98678.7,37476.3C98651.9,37476.3 98625.8,37479.4 98600.8,37485.1C98589.9,37487.6 98579.3,37490.6 98568.8,37494L98568.8,37465.6C98575.2,37463.6 98581.7,37461.8 98588.3,37460.2C98628.8,37426.8 98676.4,37401.7 98728.4,37387.6C98725.5,37384.4 98722.6,37381.4 98719.6,37378.3L98743.8,37364.4C98748.8,37369.7 98753.7,37375.1 98758.5,37380.7C98776.2,37377.4 98794.3,37375.4 98812.7,37374.7C98802.7,37363.5 98791.9,37352.9 98780.6,37343.1ZM98889,37513.6C98877.6,37472.8 98859,37434.9 98834.5,37401.5C98832.1,37401.5 98829.7,37401.5 98827.3,37401.5C98810.4,37401.5 98793.8,37402.7 98777.5,37405C98793.3,37427 98806.8,37450.7 98817.6,37475.8C98842.9,37485.9 98866.8,37498.6 98889,37513.6ZM98747.9,37410.6C98712.6,37418.8 98679.4,37432.4 98649.1,37450.4C98658.9,37449.6 98668.7,37449.3 98678.7,37449.3C98714.5,37449.3 98749.1,37454.3 98781.9,37463.6C98772.2,37444.9 98760.8,37427.1 98747.9,37410.6Z" style="fill:url(#_Linear9);"/>
                            <clipPath id="_clip10">
                                <path d="M98780.6,37343.1L98805,37329L98806.2,37329.7C98821.5,37343.6 98835.6,37358.8 98848.3,37375C98855.7,37384.3 98862.6,37393.9 98869,37403.9C98895.2,37444.4 98913.7,37490.2 98922.7,37539.3C98925.3,37553 98927,37567 98928,37581.2C98918.5,37571.5 98908.3,37562.3 98897.7,37553.7C98877.2,37537.1 98854.8,37522.8 98830.8,37511.2C98819.9,37505.9 98808.6,37501.1 98797.1,37497C98760.1,37483.6 98720.2,37476.3 98678.7,37476.3C98651.9,37476.3 98625.8,37479.4 98600.8,37485.1C98589.9,37487.6 98579.3,37490.6 98568.8,37494L98568.8,37465.6C98575.2,37463.6 98581.7,37461.8 98588.3,37460.2C98628.8,37426.8 98676.4,37401.7 98728.4,37387.6C98725.5,37384.4 98722.6,37381.4 98719.6,37378.3L98743.8,37364.4C98748.8,37369.7 98753.7,37375.1 98758.5,37380.7C98776.2,37377.4 98794.3,37375.4 98812.7,37374.7C98802.7,37363.5 98791.9,37352.9 98780.6,37343.1ZM98889,37513.6C98877.6,37472.8 98859,37434.9 98834.5,37401.5C98832.1,37401.5 98829.7,37401.5 98827.3,37401.5C98810.4,37401.5 98793.8,37402.7 98777.5,37405C98793.3,37427 98806.8,37450.7 98817.6,37475.8C98842.9,37485.9 98866.8,37498.6 98889,37513.6ZM98747.9,37410.6C98712.6,37418.8 98679.4,37432.4 98649.1,37450.4C98658.9,37449.6 98668.7,37449.3 98678.7,37449.3C98714.5,37449.3 98749.1,37454.3 98781.9,37463.6C98772.2,37444.9 98760.8,37427.1 98747.9,37410.6Z"/>
                            </clipPath>
                            <g clip-path="url(#_clip10)">
                                <g transform="matrix(0.404524,0,0,0.404524,62855.3,20485.1)">
                                    <path d="M89107.5,42222.1C89061.1,41993 88980.9,41827.2 88808.3,41672.1C88737.1,41608.1 88756.1,41668.6 88770.2,41678.1C89034.3,41856.8 89003.8,42154.6 89005.2,42164.5C89006.6,42174.3 89107.5,42222.1 89107.5,42222.1Z" style="fill-opacity:0.3;"/>
                                </g>
                                <g transform="matrix(0.404501,-0.00431838,0.00431838,0.404501,62595.1,20885.8)">
                                    <path d="M89107.5,42222.1C89061.1,41993 88980.9,41827.2 88808.3,41672.1C88737.1,41608.1 88756.1,41668.6 88770.2,41678.1C89034.3,41856.8 89003.8,42154.6 89005.2,42164.5C89006.6,42174.3 89107.5,42222.1 89107.5,42222.1Z" style="fill-opacity:0.3;"/>
                                </g>
                                <g transform="matrix(0.130225,-0.38299,0.38299,0.130225,70993.2,66067)">
                                    <path d="M89012.2,41994.4C88934.2,41738.3 88831.9,41678.6 88808.3,41672.1C88779.9,41664.2 88857.1,41724.1 88909.4,41813.7C88946.8,41877.9 88974.2,41932.7 88990.6,41969.1C88994.7,41978.2 89012.2,41994.4 89012.2,41994.4Z" style="fill-opacity:0.3;"/>
                                </g>
                            </g>
                        </g>
                        <g transform="matrix(-2.47204,7.86585e-16,-7.682e-16,-2.47204,333346,135404)">
                            <path d="M98780.6,37343.1L98805,37329L98806.2,37329.7C98821.5,37343.6 98835.6,37358.8 98848.3,37375C98855.7,37384.3 98862.6,37393.9 98869,37403.9C98895.2,37444.4 98913.7,37490.2 98922.7,37539.3C98925.3,37553 98927,37567 98928,37581.2C98918.5,37571.5 98908.3,37562.3 98897.7,37553.7C98877.2,37537.1 98854.8,37522.8 98830.8,37511.2C98819.9,37505.9 98808.6,37501.1 98797.1,37497C98760.1,37483.6 98720.2,37476.3 98678.7,37476.3C98651.9,37476.3 98625.8,37479.4 98600.8,37485.1C98589.9,37487.6 98579.3,37490.6 98568.8,37494L98568.8,37465.6C98575.2,37463.6 98581.7,37461.8 98588.3,37460.2C98628.8,37426.8 98676.4,37401.7 98728.4,37387.6C98725.5,37384.4 98722.6,37381.4 98719.6,37378.3L98743.8,37364.4C98748.8,37369.7 98753.7,37375.1 98758.5,37380.7C98776.2,37377.4 98794.3,37375.4 98812.7,37374.7C98802.7,37363.5 98791.9,37352.9 98780.6,37343.1ZM98889,37513.6C98877.6,37472.8 98859,37434.9 98834.5,37401.5C98832.1,37401.5 98829.7,37401.5 98827.3,37401.5C98810.4,37401.5 98793.8,37402.7 98777.5,37405C98793.3,37427 98806.8,37450.7 98817.6,37475.8C98842.9,37485.9 98866.8,37498.6 98889,37513.6ZM98747.9,37410.6C98712.6,37418.8 98679.4,37432.4 98649.1,37450.4C98658.9,37449.6 98668.7,37449.3 98678.7,37449.3C98714.5,37449.3 98749.1,37454.3 98781.9,37463.6C98772.2,37444.9 98760.8,37427.1 98747.9,37410.6Z" style="fill:url(#_Linear11);"/>
                            <clipPath id="_clip12">
                                <path d="M98780.6,37343.1L98805,37329L98806.2,37329.7C98821.5,37343.6 98835.6,37358.8 98848.3,37375C98855.7,37384.3 98862.6,37393.9 98869,37403.9C98895.2,37444.4 98913.7,37490.2 98922.7,37539.3C98925.3,37553 98927,37567 98928,37581.2C98918.5,37571.5 98908.3,37562.3 98897.7,37553.7C98877.2,37537.1 98854.8,37522.8 98830.8,37511.2C98819.9,37505.9 98808.6,37501.1 98797.1,37497C98760.1,37483.6 98720.2,37476.3 98678.7,37476.3C98651.9,37476.3 98625.8,37479.4 98600.8,37485.1C98589.9,37487.6 98579.3,37490.6 98568.8,37494L98568.8,37465.6C98575.2,37463.6 98581.7,37461.8 98588.3,37460.2C98628.8,37426.8 98676.4,37401.7 98728.4,37387.6C98725.5,37384.4 98722.6,37381.4 98719.6,37378.3L98743.8,37364.4C98748.8,37369.7 98753.7,37375.1 98758.5,37380.7C98776.2,37377.4 98794.3,37375.4 98812.7,37374.7C98802.7,37363.5 98791.9,37352.9 98780.6,37343.1ZM98889,37513.6C98877.6,37472.8 98859,37434.9 98834.5,37401.5C98832.1,37401.5 98829.7,37401.5 98827.3,37401.5C98810.4,37401.5 98793.8,37402.7 98777.5,37405C98793.3,37427 98806.8,37450.7 98817.6,37475.8C98842.9,37485.9 98866.8,37498.6 98889,37513.6ZM98747.9,37410.6C98712.6,37418.8 98679.4,37432.4 98649.1,37450.4C98658.9,37449.6 98668.7,37449.3 98678.7,37449.3C98714.5,37449.3 98749.1,37454.3 98781.9,37463.6C98772.2,37444.9 98760.8,37427.1 98747.9,37410.6Z"/>
                            </clipPath>
                            <g clip-path="url(#_clip12)">
                                <g transform="matrix(0.404524,0,0,0.404524,62855.3,20485.1)">
                                    <path d="M89107.5,42222.1C89061.1,41993 88980.9,41827.2 88808.3,41672.1C88737.1,41608.1 88756.1,41668.6 88770.2,41678.1C89034.3,41856.8 89003.8,42154.6 89005.2,42164.5C89006.6,42174.3 89107.5,42222.1 89107.5,42222.1Z" style="fill-opacity:0.3;"/>
                                </g>
                                <g transform="matrix(0.404501,-0.00431838,0.00431838,0.404501,62595.4,20885.7)">
                                    <path d="M89107.5,42222.1C89061.1,41993 88980.9,41827.2 88808.3,41672.1C88737.1,41608.1 88756.1,41668.6 88770.2,41678.1C89034.3,41856.8 89003.8,42154.6 89005.2,42164.5C89006.6,42174.3 89107.5,42222.1 89107.5,42222.1Z" style="fill-opacity:0.3;"/>
                                </g>
                                <g transform="matrix(0.130225,-0.38299,0.38299,0.130225,70993.2,66067)">
                                    <path d="M89012.2,41994.4C88934.2,41738.3 88831.9,41678.6 88808.3,41672.1C88779.9,41664.2 88857.1,41724.1 88909.4,41813.7C88946.8,41877.9 88974.2,41932.7 88990.6,41969.1C88994.7,41978.2 89012.2,41994.4 89012.2,41994.4Z" style="fill-opacity:0.3;"/>
                                </g>
                            </g>
                        </g>
                        <g transform="matrix(1.23602,-2.14085,2.14085,1.23602,-113741,207502)">
                            <path d="M98780.6,37343.1L98805,37329L98806.2,37329.7C98821.5,37343.6 98835.6,37358.8 98848.3,37375C98855.7,37384.3 98862.6,37393.9 98869,37403.9C98895.2,37444.4 98913.7,37490.2 98922.7,37539.3C98925.3,37553 98927,37567 98928,37581.2C98918.5,37571.5 98908.3,37562.3 98897.7,37553.7C98877.2,37537.1 98854.8,37522.8 98830.8,37511.2C98819.9,37505.9 98808.6,37501.1 98797.1,37497C98760.1,37483.6 98720.2,37476.3 98678.7,37476.3C98651.9,37476.3 98625.8,37479.4 98600.8,37485.1C98589.9,37487.6 98579.3,37490.6 98568.8,37494L98568.8,37465.6C98575.2,37463.6 98581.7,37461.8 98588.3,37460.2C98628.8,37426.8 98676.4,37401.7 98728.4,37387.6C98725.5,37384.4 98722.6,37381.4 98719.6,37378.3L98743.8,37364.4C98748.8,37369.7 98753.7,37375.1 98758.5,37380.7C98776.2,37377.4 98794.3,37375.4 98812.7,37374.7C98802.7,37363.5 98791.9,37352.9 98780.6,37343.1ZM98889,37513.6C98877.6,37472.8 98859,37434.9 98834.5,37401.5C98832.1,37401.5 98829.7,37401.5 98827.3,37401.5C98810.4,37401.5 98793.8,37402.7 98777.5,37405C98793.3,37427 98806.8,37450.7 98817.6,37475.8C98842.9,37485.9 98866.8,37498.6 98889,37513.6ZM98747.9,37410.6C98712.6,37418.8 98679.4,37432.4 98649.1,37450.4C98658.9,37449.6 98668.7,37449.3 98678.7,37449.3C98714.5,37449.3 98749.1,37454.3 98781.9,37463.6C98772.2,37444.9 98760.8,37427.1 98747.9,37410.6Z" style="fill:url(#_Linear13);"/>
                            <clipPath id="_clip14">
                                <path d="M98780.6,37343.1L98805,37329L98806.2,37329.7C98821.5,37343.6 98835.6,37358.8 98848.3,37375C98855.7,37384.3 98862.6,37393.9 98869,37403.9C98895.2,37444.4 98913.7,37490.2 98922.7,37539.3C98925.3,37553 98927,37567 98928,37581.2C98918.5,37571.5 98908.3,37562.3 98897.7,37553.7C98877.2,37537.1 98854.8,37522.8 98830.8,37511.2C98819.9,37505.9 98808.6,37501.1 98797.1,37497C98760.1,37483.6 98720.2,37476.3 98678.7,37476.3C98651.9,37476.3 98625.8,37479.4 98600.8,37485.1C98589.9,37487.6 98579.3,37490.6 98568.8,37494L98568.8,37465.6C98575.2,37463.6 98581.7,37461.8 98588.3,37460.2C98628.8,37426.8 98676.4,37401.7 98728.4,37387.6C98725.5,37384.4 98722.6,37381.4 98719.6,37378.3L98743.8,37364.4C98748.8,37369.7 98753.7,37375.1 98758.5,37380.7C98776.2,37377.4 98794.3,37375.4 98812.7,37374.7C98802.7,37363.5 98791.9,37352.9 98780.6,37343.1ZM98889,37513.6C98877.6,37472.8 98859,37434.9 98834.5,37401.5C98832.1,37401.5 98829.7,37401.5 98827.3,37401.5C98810.4,37401.5 98793.8,37402.7 98777.5,37405C98793.3,37427 98806.8,37450.7 98817.6,37475.8C98842.9,37485.9 98866.8,37498.6 98889,37513.6ZM98747.9,37410.6C98712.6,37418.8 98679.4,37432.4 98649.1,37450.4C98658.9,37449.6 98668.7,37449.3 98678.7,37449.3C98714.5,37449.3 98749.1,37454.3 98781.9,37463.6C98772.2,37444.9 98760.8,37427.1 98747.9,37410.6Z"/>
                            </clipPath>
                            <g clip-path="url(#_clip14)">
                                <g transform="matrix(0.404524,0,0,0.404524,62855.3,20485.1)">
                                    <path d="M89107.5,42222.1C89061.1,41993 88980.9,41827.2 88808.3,41672.1C88737.1,41608.1 88756.1,41668.6 88770.2,41678.1C89034.3,41856.8 89003.8,42154.6 89005.2,42164.5C89006.6,42174.3 89107.5,42222.1 89107.5,42222.1Z" style="fill-opacity:0.3;"/>
                                </g>
                                <g transform="matrix(0.404501,-0.00431838,0.00431838,0.404501,62595.4,20885.7)">
                                    <path d="M89107.5,42222.1C89061.1,41993 88980.9,41827.2 88808.3,41672.1C88737.1,41608.1 88756.1,41668.6 88770.2,41678.1C89034.3,41856.8 89003.8,42154.6 89005.2,42164.5C89006.6,42174.3 89107.5,42222.1 89107.5,42222.1Z" style="fill-opacity:0.3;"/>
                                </g>
                                <g transform="matrix(0.130225,-0.38299,0.38299,0.130225,70993.2,66067)">
                                    <path d="M89012.2,41994.4C88934.2,41738.3 88831.9,41678.6 88808.3,41672.1C88779.9,41664.2 88857.1,41724.1 88909.4,41813.7C88946.8,41877.9 88974.2,41932.7 88990.6,41969.1C88994.7,41978.2 89012.2,41994.4 89012.2,41994.4Z" style="fill-opacity:0.3;"/>
                                </g>
                            </g>
                        </g>
                    </g>
                    <g transform="matrix(1.27859,-0.638785,0.775918,1.16295,-10532.5,157733)">
                        <path d="M4783.44,4538.53L4782.95,4538.53L4782.95,4563.22L4777.43,4563.22L4777.43,4528.82L4785.36,4528.82L4794.38,4553.51L4794.87,4553.51L4794.87,4528.82L4800.39,4528.82L4800.39,4563.22L4792.46,4563.22L4783.44,4538.53Z" style="fill-rule:nonzero;"/>
                    </g>
                    <g transform="matrix(1.27859,-0.638785,0.775918,1.16295,-10532.5,157733)">
                        <path d="M4806.31,4563.22L4806.31,4528.82L4828.04,4528.82L4828.04,4534.14L4812.76,4534.14L4812.76,4543.11L4827.5,4543.11L4827.5,4548.43L4812.76,4548.43L4812.76,4557.89L4828.04,4557.89L4828.04,4563.22L4806.31,4563.22Z" style="fill-rule:nonzero;"/>
                    </g>
                    <g transform="matrix(1.27859,-0.638785,0.775918,1.16295,-10532.5,157733)">
                        <path d="M4844.7,4563.81C4841.74,4563.81 4839.22,4563.3 4837.13,4562.28C4835.05,4561.26 4833.35,4559.91 4832.03,4558.24L4835.93,4554.2C4837.21,4555.68 4838.6,4556.77 4840.09,4557.47C4841.59,4558.18 4843.19,4558.53 4844.9,4558.53C4846.87,4558.53 4848.38,4558.09 4849.43,4557.2C4850.48,4556.32 4851.01,4555.03 4851.01,4553.36C4851.01,4551.98 4850.61,4550.94 4849.82,4550.23C4849.04,4549.52 4847.7,4549.02 4845.83,4548.73L4842.19,4548.14C4839,4547.58 4836.73,4546.42 4835.38,4544.66C4834.04,4542.9 4833.36,4540.82 4833.36,4538.43C4833.36,4535.14 4834.43,4532.62 4836.57,4530.86C4838.7,4529.1 4841.66,4528.22 4845.44,4528.22C4848.13,4528.22 4850.46,4528.65 4852.41,4529.51C4854.37,4530.36 4855.94,4531.53 4857.12,4533.01L4853.32,4537.05C4852.4,4535.96 4851.3,4535.1 4850.02,4534.46C4848.74,4533.82 4847.23,4533.5 4845.49,4533.5C4841.74,4533.5 4839.87,4535.04 4839.87,4538.13C4839.87,4539.44 4840.26,4540.45 4841.05,4541.14C4841.84,4541.83 4843.19,4542.34 4845.09,4542.66L4848.69,4543.31C4851.68,4543.86 4853.9,4544.96 4855.34,4546.61C4856.79,4548.25 4857.51,4550.35 4857.51,4552.91C4857.51,4554.53 4857.23,4556 4856.68,4557.33C4856.12,4558.66 4855.3,4559.81 4854.21,4560.78C4853.13,4561.74 4851.79,4562.49 4850.19,4563.02C4848.6,4563.54 4846.77,4563.81 4844.7,4563.81Z" style="fill-rule:nonzero;"/>
                    </g>
                    <g transform="matrix(1.27859,-0.638785,0.775918,1.16295,-10532.5,157733)">
                        <path d="M4876.39,4534.14L4876.39,4563.22L4869.98,4563.22L4869.98,4534.14L4859.63,4534.14L4859.63,4528.82L4886.74,4528.82L4886.74,4534.14L4876.39,4534.14Z" style="fill-rule:nonzero;"/>
                    </g>
                </g>
                <g transform="matrix(2.13659,0,0,1.84887,-3502.37,-136057)">
                    <circle cx="997.201" cy="159951" r="7.028" style="fill:rgb(228,239,255);stroke:rgb(87,136,249);stroke-width:2.71px;"/>
                </g>
                <g transform="matrix(2.13659,0,0,1.84887,-2823.25,-136057)">
                    <circle cx="997.201" cy="159951" r="7.028" style="fill:rgb(228,239,255);stroke:rgb(87,136,249);stroke-width:2.71px;"/>
                </g>
            </g>
        </g>
    </g>
    <defs>
        <linearGradient id="_Linear3" x1="0" y1="0" x2="1" y2="0" gradientUnits="userSpaceOnUse" gradientTransform="matrix(358.75,113.941,-113.941,358.75,98569.3,37466.5)"><stop offset="0" style="stop-color:rgb(0,140,114);stop-opacity:1"/><stop offset="1" style="stop-color:rgb(0,61,50);stop-opacity:1"/></linearGradient>
        <linearGradient id="_Linear5" x1="0" y1="0" x2="1" y2="0" gradientUnits="userSpaceOnUse" gradientTransform="matrix(355.237,116.281,-116.281,355.237,98572.4,37463.3)"><stop offset="0" style="stop-color:rgb(226,240,255);stop-opacity:1"/><stop offset="1" style="stop-color:rgb(79,163,255);stop-opacity:1"/></linearGradient>
        <linearGradient id="_Linear7" x1="0" y1="0" x2="1" y2="0" gradientUnits="userSpaceOnUse" gradientTransform="matrix(358.014,85.86,-85.86,358.014,98570.3,37494.9)"><stop offset="0" style="stop-color:rgb(255,46,46);stop-opacity:1"/><stop offset="1" style="stop-color:rgb(190,0,0);stop-opacity:1"/></linearGradient>
        <linearGradient id="_Linear9" x1="0" y1="0" x2="1" y2="0" gradientUnits="userSpaceOnUse" gradientTransform="matrix(355.176,114.061,-114.061,355.176,98569.7,37464.1)"><stop offset="0" style="stop-color:rgb(255,175,77);stop-opacity:1"/><stop offset="1" style="stop-color:rgb(215,118,0);stop-opacity:1"/></linearGradient>
        <linearGradient id="_Linear11" x1="0" y1="0" x2="1" y2="0" gradientUnits="userSpaceOnUse" gradientTransform="matrix(359.205,114.909,-114.909,359.205,98568.8,37466.3)"><stop offset="0" style="stop-color:rgb(0,113,194);stop-opacity:1"/><stop offset="1" style="stop-color:rgb(0,61,104);stop-opacity:1"/></linearGradient>
        <linearGradient id="_Linear13" x1="0" y1="0" x2="1" y2="0" gradientUnits="userSpaceOnUse" gradientTransform="matrix(-358.797,-115.432,115.432,-358.797,98927,37580.6)"><stop offset="0" style="stop-color:rgb(27,27,27);stop-opacity:1"/><stop offset="1" style="stop-color:rgb(98,98,98);stop-opacity:1"/></linearGradient>
    </defs>
</svg>
